<svg width="1031" height="603" viewBox="0 0 1031 603" fill="none" xmlns="http://www.w3.org/2000/svg">
<g clip-path="url(#clip0)">
<path d="M146.917 64.7877V440.036C146.917 445.089 147.912 450.091 149.847 454.759C151.781 459.426 154.616 463.667 158.19 467.24C161.763 470.812 166.006 473.645 170.675 475.578C175.345 477.511 180.349 478.506 185.403 478.506H762.73C767.784 478.506 772.789 477.511 777.458 475.578C782.127 473.645 786.37 470.812 789.944 467.24C793.518 463.667 796.353 459.426 798.287 454.759C800.221 450.091 801.216 445.089 801.216 440.036V64.7877H146.917Z" fill="white"/>
<path d="M762.731 479.317H185.403C174.985 479.307 164.996 475.165 157.629 467.801C150.262 460.436 146.117 450.451 146.105 440.036V63.972H802.029V440.036C802.017 450.451 797.873 460.436 790.505 467.801C783.138 475.165 773.149 479.307 762.731 479.317ZM147.729 65.5954V440.036C147.741 450.021 151.714 459.593 158.777 466.653C165.84 473.712 175.416 477.683 185.403 477.694H762.731C772.719 477.683 782.294 473.712 789.357 466.653C796.42 459.593 800.393 450.021 800.405 440.036V65.5954H147.729Z" fill="#D2D2D2"/>
<path d="M508.397 177.046H439.735V167.428C439.735 160.672 442.42 154.192 447.199 149.415C451.978 144.637 458.46 141.953 465.218 141.953H482.914C489.673 141.953 496.155 144.637 500.933 149.415C505.712 154.192 508.397 160.672 508.397 167.428V177.046Z" fill="#599BFF"/>
<path d="M482.558 127.774V143.26C482.563 144.378 482.346 145.485 481.922 146.519C481.498 147.553 480.873 148.493 480.084 149.284C479.296 150.076 478.358 150.705 477.326 151.133C476.293 151.562 475.187 151.783 474.069 151.783C471.818 151.782 469.66 150.887 468.069 149.296C466.478 147.705 465.584 145.547 465.584 143.297V127.794L482.558 127.774Z" fill="#599BFF"/>
<path d="M482.558 130.196V142.217L471.183 135.127L482.558 130.196Z" fill="black"/>
<path d="M474.064 137.136C482.304 137.136 488.983 129.672 488.983 120.464C488.983 111.257 482.304 103.793 474.064 103.793C465.824 103.793 459.145 111.257 459.145 120.464C459.145 129.672 465.824 137.136 474.064 137.136Z" fill="#599BFF"/>
<path d="M332.86 215.897L340.484 231.335L357.523 233.811L345.193 245.827L348.104 262.795L332.86 254.784L317.62 262.795L320.531 245.827L308.197 233.811L325.24 231.335L332.86 215.897Z" fill="#FFD966"/>
<path d="M403.467 215.897L411.087 231.335L428.129 233.811L415.796 245.827L418.707 262.795L403.467 254.784L388.222 262.795L391.133 245.827L378.804 233.811L395.842 231.335L403.467 215.897Z" fill="#FFD966"/>
<path d="M474.064 215.897L481.688 231.335L498.727 233.811L486.398 245.827L489.308 262.795L474.064 254.784L458.824 262.795L461.735 245.827L449.401 233.811L466.444 231.335L474.064 215.897Z" fill="#FFD966"/>
<path d="M544.668 215.897L552.292 231.335L569.33 233.811L557.001 245.827L559.912 262.795L544.668 254.784L529.427 262.795L532.338 245.827L520.005 233.811L537.048 231.335L544.668 215.897Z" fill="#FFD966"/>
<path d="M615.269 215.897L622.893 231.335L639.932 233.811L627.603 245.827L630.513 262.795L615.269 254.784L600.029 262.795L602.94 245.827L590.606 233.811L607.649 231.335L615.269 215.897Z" fill="#FFD966"/>
<path d="M497.721 426.51H444.782C439.432 426.51 434.301 424.385 430.518 420.603C426.735 416.821 424.609 411.692 424.609 406.344C424.609 403.696 425.131 401.073 426.145 398.627C427.159 396.18 428.645 393.957 430.518 392.084C432.391 390.212 434.615 388.726 437.062 387.713C439.51 386.699 442.133 386.178 444.782 386.178H497.721C503.07 386.179 508.2 388.304 511.982 392.086C515.765 395.867 517.889 400.996 517.889 406.344C517.889 411.691 515.765 416.82 511.982 420.602C508.2 424.384 503.07 426.509 497.721 426.51Z" fill="#FF5970"/>
<path d="M801.216 39.285C801.216 29.0812 797.162 19.2954 789.944 12.0802C782.727 4.8651 772.938 0.811676 762.73 0.811676H185.403C175.196 0.811676 165.407 4.8651 158.189 12.0802C150.972 19.2954 146.917 29.0812 146.917 39.285V64.7877H801.216V39.285Z" fill="#D2D2D2"/>
<path d="M802.029 65.5954H146.105V39.285C146.116 28.8693 150.26 18.8832 157.627 11.5182C164.995 4.15313 174.984 0.0107434 185.403 0L762.731 0C773.15 0.0107434 783.139 4.15313 790.507 11.5182C797.874 18.8832 802.018 28.8693 802.029 39.285V65.5954ZM147.729 63.972H800.405V39.285C800.393 29.3001 796.42 19.7276 789.357 12.6672C782.295 5.60686 772.719 1.63516 762.731 1.62335H185.403C175.415 1.63516 165.84 5.60686 158.777 12.6672C151.714 19.7276 147.741 29.3001 147.729 39.285V63.972Z" fill="#D2D2D2"/>
<path d="M194.087 42.5398C199.468 42.5398 203.83 38.179 203.83 32.7997C203.83 27.4204 199.468 23.0596 194.087 23.0596C188.706 23.0596 184.344 27.4204 184.344 32.7997C184.344 38.179 188.706 42.5398 194.087 42.5398Z" fill="white"/>
<path d="M228.189 42.5398C233.57 42.5398 237.932 38.179 237.932 32.7997C237.932 27.4204 233.57 23.0596 228.189 23.0596C222.808 23.0596 218.445 27.4204 218.445 32.7997C218.445 38.179 222.808 42.5398 228.189 42.5398Z" fill="white"/>
<path d="M746.207 21.4363H710.481C704.204 21.4363 699.114 26.5239 699.114 32.7997C699.114 39.0755 704.204 44.1631 710.481 44.1631H746.207C752.485 44.1631 757.574 39.0755 757.574 32.7997C757.574 26.5239 752.485 21.4363 746.207 21.4363Z" fill="white"/>
<path d="M475.563 417.2C475.24 417.2 474.93 417.071 474.702 416.843C474.474 416.615 474.346 416.305 474.346 415.982C474.346 415.66 474.474 415.35 474.702 415.122L483.495 406.332L474.702 397.541C474.474 397.312 474.346 397.002 474.346 396.679C474.346 396.356 474.475 396.047 474.704 395.818C474.933 395.59 475.243 395.462 475.566 395.463C475.889 395.463 476.199 395.592 476.427 395.82L486.077 405.471C486.305 405.7 486.433 406.009 486.433 406.332C486.433 406.654 486.305 406.964 486.077 407.192L476.427 416.843C476.314 416.956 476.179 417.046 476.031 417.108C475.882 417.169 475.723 417.2 475.563 417.2Z" fill="white"/>
<path d="M485.216 407.561H456.798C456.475 407.561 456.165 407.433 455.937 407.205C455.708 406.976 455.58 406.667 455.58 406.344C455.58 406.021 455.708 405.711 455.937 405.483C456.165 405.255 456.475 405.126 456.798 405.126H485.216C485.539 405.126 485.849 405.255 486.077 405.483C486.306 405.711 486.434 406.021 486.434 406.344C486.434 406.667 486.306 406.976 486.077 407.205C485.849 407.433 485.539 407.561 485.216 407.561Z" fill="white"/>
<path d="M648.092 280.194H300.037V358.41H648.092V280.194Z" fill="#EDEDED"/>
<path d="M597.07 299.248H351.063V300.871H597.07V299.248Z" fill="black"/>
<path d="M565.956 318.488H351.063V320.112H565.956V318.488Z" fill="black"/>
<path d="M597.07 337.729H525.075V339.352H597.07V337.729Z" fill="black"/>
<path d="M274.627 404.846H21.3135V545.274H274.627V404.846Z" fill="white"/>
<path d="M275.44 546.081H20.502V404.039H275.452L275.44 546.081ZM22.1137 544.458H273.816V405.662H22.1258L22.1137 544.458Z" fill="black"/>
<path d="M65.5893 487.625L70.0956 496.752L80.1677 498.217L72.8806 505.319L74.5978 515.352L65.5893 510.615L56.5768 515.352L58.2981 505.319L51.0068 498.217L61.083 496.752L65.5893 487.625Z" fill="#FFD966"/>
<path d="M107.326 487.625L111.833 496.752L121.905 498.217L114.618 505.319L116.335 515.352L107.326 510.615L98.3139 515.352L100.035 505.319L92.748 498.217L102.82 496.752L107.326 487.625Z" fill="#FFD966"/>
<path d="M149.065 487.625L153.571 496.752L163.643 498.217L156.356 505.319L158.077 515.352L149.065 510.615L140.052 515.352L141.774 505.319L134.486 498.217L144.558 496.752L149.065 487.625Z" fill="#FFD966"/>
<path d="M190.802 487.625L195.308 496.752L205.381 498.217L198.093 505.319L199.815 515.352L190.802 510.615L181.794 515.352L183.511 505.319L176.224 498.217L186.296 496.752L190.802 487.625Z" fill="#FFD966"/>
<path d="M232.54 487.625L237.047 496.752L247.123 498.217L239.832 505.319L241.553 515.352L232.54 510.615L223.532 515.352L225.249 505.319L217.962 498.217L228.034 496.752L232.54 487.625Z" fill="#D2D2D2"/>
<path d="M242.061 427.61H129.984V429.233H242.061V427.61Z" fill="black"/>
<path d="M215.449 444.492H129.984V446.116H215.449V444.492Z" fill="black"/>
<path d="M202.142 461.375H129.984V462.999H202.142V461.375Z" fill="black"/>
<path d="M82.5132 446.319H82.2736V441.144C83.6287 440.054 84.7173 438.67 85.4567 437.096C86.196 435.522 86.5667 433.8 86.5404 432.062C86.5404 425.954 82.1113 421.007 76.6469 421.007C71.1825 421.007 66.7493 425.954 66.7493 432.062C66.725 433.8 67.097 435.522 67.8369 437.095C68.5769 438.669 69.6655 440.054 71.0201 441.144V446.307H70.7765C66.2942 446.307 61.9955 448.087 58.826 451.255C55.6566 454.423 53.876 458.721 53.876 463.202V469.581H99.4137V463.202C99.4105 458.723 97.6285 454.429 94.4594 451.263C91.2903 448.097 86.9934 446.319 82.5132 446.319Z" fill="#D2D2D2"/>
<path d="M86.0334 168.796H15.7314C11.5592 168.796 7.55782 170.452 4.60761 173.402C1.65741 176.351 0 180.351 0 184.522L0 206.096C0 210.267 1.65741 214.267 4.60761 217.216C7.55782 220.165 11.5592 221.822 15.7314 221.822H66.5792L83.358 238.599V221.822H86.0334C90.2056 221.822 94.2069 220.165 97.1571 217.216C100.107 214.267 101.765 210.267 101.765 206.096V184.522C101.765 180.351 100.107 176.351 97.1571 173.402C94.2069 170.452 90.2056 168.796 86.0334 168.796Z" fill="#599BFF"/>
<path d="M24.7313 201.502C28.1527 201.502 30.9264 198.729 30.9264 195.309C30.9264 191.888 28.1527 189.116 24.7313 189.116C21.3098 189.116 18.5361 191.888 18.5361 195.309C18.5361 198.729 21.3098 201.502 24.7313 201.502Z" fill="white"/>
<path d="M50.8797 201.502C54.3012 201.502 57.0748 198.729 57.0748 195.309C57.0748 191.888 54.3012 189.116 50.8797 189.116C47.4582 189.116 44.6846 191.888 44.6846 195.309C44.6846 198.729 47.4582 201.502 50.8797 201.502Z" fill="white"/>
<path d="M77.0291 201.502C80.4506 201.502 83.2242 198.729 83.2242 195.309C83.2242 191.888 80.4506 189.116 77.0291 189.116C73.6076 189.116 70.834 191.888 70.834 195.309C70.834 198.729 73.6076 201.502 77.0291 201.502Z" fill="white"/>
<path d="M92.5203 314.053H162.822C171.511 314.053 178.554 307.012 178.554 298.326V276.748C178.554 268.063 171.511 261.022 162.822 261.022H92.5203C83.8321 261.022 76.789 268.063 76.789 276.748V298.326C76.789 307.012 83.8321 314.053 92.5203 314.053Z" fill="#FF5970"/>
<path d="M153.823 293.732C157.245 293.732 160.018 290.96 160.018 287.539C160.018 284.119 157.245 281.346 153.823 281.346C150.402 281.346 147.628 284.119 147.628 287.539C147.628 290.96 150.402 293.732 153.823 293.732Z" fill="white"/>
<path d="M127.674 293.732C131.095 293.732 133.869 290.96 133.869 287.539C133.869 284.119 131.095 281.346 127.674 281.346C124.252 281.346 121.479 284.119 121.479 287.539C121.479 290.96 124.252 293.732 127.674 293.732Z" fill="white"/>
<path d="M101.525 293.732C104.947 293.732 107.72 290.96 107.72 287.539C107.72 284.119 104.947 281.346 101.525 281.346C98.1037 281.346 95.3301 284.119 95.3301 287.539C95.3301 290.96 98.1037 293.732 101.525 293.732Z" fill="white"/>
<path d="M95.1963 304.312V330.826L116.847 309.183C116.847 309.183 94.3844 305.124 95.1963 304.312Z" fill="#FF5970"/>
<path d="M999.5 112.579C999.385 112.58 999.272 112.548 999.174 112.487C999.077 112.426 998.999 112.338 998.949 112.234C998.9 112.13 998.881 112.014 998.895 111.9C998.909 111.785 998.956 111.678 999.03 111.589L1013.12 94.1865C1013.17 94.1181 1013.23 94.0604 1013.31 94.0168C1013.38 93.9733 1013.46 93.9449 1013.54 93.9335C1013.62 93.922 1013.71 93.9278 1013.79 93.9503C1013.87 93.9728 1013.94 94.0117 1014.01 94.0645C1014.07 94.1173 1014.13 94.1829 1014.16 94.2572C1014.2 94.3314 1014.23 94.4128 1014.23 94.4962C1014.24 94.5796 1014.22 94.6633 1014.2 94.742C1014.17 94.8206 1014.12 94.8927 1014.07 94.9536L999.971 112.356C999.915 112.426 999.843 112.483 999.761 112.521C999.68 112.56 999.591 112.58 999.5 112.579Z" fill="black"/>
<path d="M1006.09 119.085C1005.96 119.085 1005.83 119.042 1005.72 118.961C1005.62 118.88 1005.54 118.767 1005.5 118.638C1005.47 118.509 1005.48 118.372 1005.53 118.248C1005.58 118.124 1005.67 118.02 1005.78 117.952L1028.56 104.324C1028.63 104.278 1028.71 104.247 1028.79 104.232C1028.87 104.216 1028.95 104.218 1029.03 104.236C1029.11 104.254 1029.19 104.288 1029.26 104.336C1029.32 104.385 1029.38 104.446 1029.42 104.517C1029.46 104.588 1029.49 104.666 1029.5 104.748C1029.51 104.83 1029.51 104.913 1029.49 104.993C1029.46 105.072 1029.43 105.147 1029.37 105.211C1029.32 105.275 1029.26 105.329 1029.18 105.367L1006.4 118.999C1006.31 119.055 1006.2 119.084 1006.09 119.085Z" fill="black"/>
<path d="M1007.26 127.936C1007.1 127.952 1006.94 127.903 1006.81 127.801C1006.68 127.698 1006.61 127.549 1006.59 127.388C1006.57 127.227 1006.62 127.065 1006.72 126.94C1006.83 126.814 1006.98 126.735 1007.14 126.718L1030.28 122.047C1030.36 122.031 1030.44 122.031 1030.51 122.046C1030.59 122.061 1030.67 122.092 1030.73 122.136C1030.8 122.18 1030.86 122.237 1030.9 122.303C1030.95 122.369 1030.98 122.444 1031 122.522C1031.01 122.6 1031.01 122.681 1031 122.76C1030.98 122.838 1030.95 122.913 1030.91 122.98C1030.86 123.046 1030.81 123.104 1030.74 123.148C1030.67 123.193 1030.6 123.224 1030.52 123.24L1007.38 127.912L1007.26 127.936Z" fill="black"/>
<path d="M787.259 557.648V602.261H723.875C726.311 589.084 736.57 580.951 753.511 577.14L755.764 557.66L787.259 557.648Z" fill="black"/>
<path d="M755.095 574.964L754.234 576.344L766.046 583.706L766.907 582.326L755.095 574.964Z" fill="white"/>
<path d="M856.432 554.478L860.48 602.229H828.859L826.159 557.839L856.432 554.478Z" fill="black"/>
<path d="M866.233 602.261H823.103V601.352C823.103 597.313 824.708 593.439 827.565 590.582C830.422 587.726 834.298 586.121 838.339 586.121H851.009C855.05 586.121 858.925 587.726 861.783 590.582C864.64 593.439 866.245 597.313 866.245 601.352V602.261H866.233Z" fill="black"/>
<path d="M867.049 602.261H865.425V601.352C865.421 597.529 863.901 593.863 861.197 591.158C858.492 588.454 854.825 586.933 851.001 586.929H838.33C834.505 586.933 830.838 588.454 828.134 591.158C825.43 593.863 823.909 597.529 823.906 601.352H822.282C822.287 597.098 823.979 593.02 826.987 590.012C829.996 587.003 834.075 585.311 838.33 585.306H850.988C855.244 585.311 859.323 587.003 862.332 590.012C865.34 593.02 867.032 597.098 867.036 601.352L867.049 602.261Z" fill="white"/>
<path d="M869.151 565.237H817.398L803.14 375.452L798.252 310.566L797.392 299.073V299.024L856.647 296.021L858.076 326.621L869.151 565.237Z" fill="#599BFF"/>
<path d="M825.891 299.771L820.825 316.621L803.141 375.468L787.633 427.009L795.135 564.993H744.145L730.602 433.324C729.969 427.181 730.503 420.973 732.177 415.029L765.126 298.29L775.6 298.55L797.392 299.085L825.891 299.771Z" fill="#599BFF"/>
<path opacity="0.2" d="M858.077 326.621L820.825 316.622L798.253 310.566L769.933 302.953L775.6 298.537L797.392 299.073V299.024L856.648 296.021L858.077 326.621Z" fill="black"/>
<path d="M805.905 424.643C805.751 424.642 805.602 424.583 805.49 424.476C805.378 424.37 805.31 424.225 805.301 424.071L800.94 355.107L784.629 353.686C784.549 353.68 784.471 353.658 784.4 353.621C784.329 353.584 784.266 353.534 784.214 353.473C784.163 353.412 784.124 353.341 784.099 353.265C784.075 353.189 784.066 353.109 784.072 353.029C784.088 352.868 784.166 352.72 784.29 352.616C784.413 352.512 784.573 352.461 784.734 352.473L802.089 353.983L806.514 424.018C806.524 424.179 806.47 424.337 806.364 424.458C806.257 424.579 806.107 424.653 805.946 424.663L805.905 424.643Z" fill="black"/>
<g opacity="0.8">
<path opacity="0.8" d="M742.671 532.746C742.062 532.88 741.453 533.034 740.856 533.18L741.023 534.803C757.948 530.745 776.342 530.785 793.332 531.853L793.247 530.307C776.33 529.243 759.446 528.971 742.671 532.746Z" fill="white"/>
<path opacity="0.8" d="M814.889 531.824L815.002 533.367C832.699 534.507 850.618 534.937 867.568 531.13L867.49 529.466C861.536 530.909 855.471 531.852 849.36 532.287C837.883 533.091 826.382 532.595 814.889 531.824Z" fill="white"/>
<path opacity="0.8" d="M868.189 544.564L868.116 542.916C858.619 543.814 849.076 544.142 839.54 543.898C831.64 543.74 823.707 543.362 815.729 543.021L815.847 544.616C833.341 545.375 850.85 546.256 868.189 544.564Z" fill="white"/>
<path opacity="0.8" d="M793.904 542.38C776.525 542.242 759.243 543.411 742.436 548.537L742.606 550.197C757.042 545.777 772.55 544.109 787.441 543.947C789.621 543.922 791.806 543.947 793.99 543.947L793.904 542.38Z" fill="white"/>
</g>
<path d="M951.048 233.133L911.94 176.527L931.869 168.974L970.108 223.632L951.048 233.133Z" fill="black"/>
<path d="M1006.78 164.859L970.34 90.7735L949.681 127.879L909.485 153.731L926.073 184.38L966.382 163.025L1006.78 164.859Z" fill="#FF5970"/>
<path d="M894.488 163.374L910.585 192.586L926.073 184.38L909.485 153.731L894.488 163.374Z" fill="black"/>
<path d="M756.486 260.547L742.521 281.651C739.589 286.065 735.092 289.204 729.936 290.433C726.151 291.322 722.193 291.134 718.51 289.889C714.828 288.643 711.568 286.391 709.101 283.388C707.708 281.704 706.595 279.808 705.805 277.771C694.275 248.356 671.549 188.341 679.011 192.074C678.402 184.769 679.619 184.497 683.07 185.987C681.649 179.765 685.031 178.276 687.723 182.058C686.407 170.614 694.283 179.802 702.906 197.805C703.848 175.89 713.786 207.171 728.482 242.544L734.361 229.46L756.486 260.547Z" fill="#FF8F78"/>
<path d="M947.017 227.029L910.593 277.888C909.807 278.936 908.927 279.908 907.962 280.794C904.347 284.107 899.68 286.041 894.781 286.257C889.882 286.474 885.062 284.96 881.168 281.979C879.395 280.631 877.854 279.002 876.605 277.158L861.99 254.528L882.662 222.549L893.997 243.538L919.248 208.036C919.248 208.036 929.999 190.796 938.004 189.546C944.597 188.507 933.003 205.536 933.003 205.536L947.017 227.029Z" fill="#FF8F78"/>
<path d="M875.927 210.024C873.303 205.198 869.617 201.03 865.147 197.835C860.677 194.639 855.541 192.499 850.124 191.575L805.995 184.043L765.548 191.624C760.743 192.526 756.229 194.579 752.392 197.606C748.554 200.633 745.507 204.545 743.512 209.006L734.345 229.464L756.486 260.547L752.325 295.692C752.153 297.118 752.285 298.564 752.714 299.935C753.142 301.306 753.857 302.57 754.81 303.645C755.764 304.719 756.935 305.578 758.246 306.166C759.556 306.754 760.977 307.058 762.414 307.056H852.247C853.589 307.056 854.917 306.79 856.156 306.274C857.394 305.757 858.517 305 859.461 304.047C860.405 303.094 861.15 301.963 861.654 300.72C862.158 299.476 862.41 298.146 862.396 296.804L861.99 254.565L882.671 222.577L875.927 210.024Z" fill="#FFD966"/>
<path d="M942.311 188.093C939.534 191.409 938.576 195.183 940.176 196.522C941.775 197.862 945.323 196.263 948.1 192.947C950.877 189.631 953.516 187.427 950.24 184.518C947.187 181.815 945.1 184.781 942.311 188.093Z" fill="#FF8F78"/>
<path d="M945.965 193.876C943.123 197.245 942.165 201.084 943.793 202.447C945.421 203.811 949.03 202.18 951.856 198.795C954.681 195.41 957.361 193.178 954.032 190.24C950.926 187.496 948.795 190.504 945.965 193.876Z" fill="#FF8F78"/>
<path d="M949.497 198.426C946.655 201.798 945.697 205.633 947.325 206.997C948.953 208.361 952.562 206.733 955.388 203.344C958.213 199.956 960.893 197.732 957.564 194.773C954.458 192.034 952.327 195.053 949.497 198.426Z" fill="#FF8F78"/>
<path d="M953.256 205.552C950.934 208.32 950.134 211.469 951.47 212.589C952.806 213.71 955.769 212.37 958.091 209.602C960.413 206.835 962.614 204.992 959.878 202.565C957.328 200.301 955.578 202.784 953.256 205.552Z" fill="#FF8F78"/>
<path d="M887.453 253.445C887.323 253.446 887.196 253.405 887.092 253.327C887.027 253.28 886.972 253.22 886.931 253.152C886.889 253.083 886.862 253.007 886.85 252.928C886.838 252.849 886.841 252.768 886.861 252.69C886.88 252.613 886.914 252.539 886.962 252.475L905.474 227.264C905.574 227.146 905.716 227.071 905.869 227.052C906.023 227.034 906.178 227.075 906.303 227.167C906.428 227.258 906.514 227.394 906.543 227.546C906.572 227.698 906.543 227.856 906.46 227.987L887.944 253.197C887.887 253.274 887.813 253.336 887.728 253.379C887.643 253.422 887.548 253.445 887.453 253.445Z" fill="black"/>
<path d="M735.38 259.768C735.26 259.767 735.142 259.732 735.042 259.665C734.942 259.599 734.863 259.505 734.816 259.394L727.914 242.755C727.881 242.681 727.864 242.601 727.862 242.52C727.861 242.439 727.876 242.358 727.906 242.283C727.936 242.208 727.981 242.139 728.038 242.081C728.095 242.024 728.163 241.978 728.238 241.947C728.313 241.916 728.393 241.9 728.474 241.9C728.555 241.901 728.636 241.917 728.71 241.949C728.785 241.981 728.852 242.027 728.909 242.086C728.965 242.144 729.009 242.213 729.039 242.288L735.94 258.928C735.973 259.003 735.99 259.083 735.991 259.165C735.992 259.246 735.977 259.327 735.947 259.403C735.916 259.478 735.87 259.547 735.813 259.605C735.755 259.663 735.687 259.708 735.611 259.739C735.537 259.764 735.458 259.773 735.38 259.768Z" fill="black"/>
<path opacity="0.4" d="M735.084 288.456C733.47 289.339 731.744 290 729.953 290.421C726.168 291.31 722.21 291.122 718.528 289.876C714.845 288.631 711.585 286.379 709.118 283.375C710.689 281.022 712.922 279.185 715.535 278.097C718.148 277.009 721.025 276.719 723.803 277.262C726.581 277.805 729.136 279.158 731.146 281.15C733.157 283.142 734.532 285.684 735.1 288.456H735.084Z" fill="#FF5970"/>
<path opacity="0.4" d="M907.963 280.794C904.347 284.107 899.681 286.041 894.782 286.257C889.882 286.474 885.063 284.96 881.169 281.979C882.078 279.215 883.808 276.792 886.128 275.034C888.448 273.276 891.248 272.265 894.157 272.137C897.065 272.008 899.944 272.767 902.41 274.314C904.876 275.86 906.813 278.121 907.963 280.794Z" fill="#FF5970"/>
<path d="M754.867 278.169H754.83C754.751 278.164 754.673 278.143 754.601 278.108C754.529 278.073 754.464 278.024 754.412 277.964C754.359 277.904 754.318 277.835 754.293 277.759C754.267 277.683 754.257 277.603 754.262 277.523L756.966 233.153C756.971 233.073 756.992 232.995 757.027 232.923C757.062 232.851 757.111 232.787 757.172 232.734C757.232 232.681 757.302 232.64 757.377 232.614C757.453 232.589 757.534 232.578 757.613 232.583C757.693 232.588 757.772 232.609 757.844 232.644C757.916 232.679 757.98 232.728 758.033 232.788C758.086 232.849 758.126 232.919 758.152 232.994C758.178 233.07 758.189 233.15 758.184 233.23L755.476 277.592C755.467 277.748 755.399 277.894 755.286 278.001C755.172 278.108 755.023 278.168 754.867 278.169Z" fill="black"/>
<path d="M862.043 274.922C861.886 274.922 861.735 274.862 861.622 274.754C861.509 274.646 861.441 274.498 861.434 274.341L859.27 227.804C859.263 227.643 859.32 227.485 859.428 227.365C859.537 227.246 859.689 227.175 859.851 227.167C860.012 227.159 860.17 227.216 860.29 227.325C860.409 227.434 860.481 227.586 860.488 227.747L862.652 274.285C862.656 274.364 862.644 274.444 862.616 274.519C862.589 274.594 862.547 274.663 862.493 274.722C862.44 274.781 862.374 274.829 862.302 274.862C862.23 274.896 862.151 274.915 862.071 274.918L862.043 274.922Z" fill="black"/>
<path d="M691.535 190.439C691.459 190.439 691.384 190.417 691.319 190.376C691.254 190.335 691.203 190.277 691.17 190.207L687.362 182.221C687.315 182.123 687.31 182.011 687.346 181.91C687.382 181.808 687.457 181.725 687.554 181.679C687.652 181.633 687.764 181.627 687.865 181.663C687.967 181.699 688.05 181.774 688.096 181.872L691.9 189.858C691.947 189.955 691.952 190.067 691.916 190.168C691.881 190.269 691.806 190.352 691.71 190.398C691.655 190.425 691.596 190.439 691.535 190.439Z" fill="#E86562"/>
<path d="M686.936 194.363C686.859 194.363 686.784 194.341 686.72 194.3C686.655 194.259 686.603 194.201 686.57 194.132L682.762 186.145C682.739 186.097 682.725 186.045 682.722 185.991C682.719 185.938 682.727 185.884 682.745 185.833C682.762 185.783 682.79 185.736 682.826 185.696C682.861 185.657 682.905 185.624 682.953 185.601C683.002 185.578 683.054 185.565 683.108 185.562C683.162 185.559 683.215 185.567 683.266 185.585C683.317 185.603 683.363 185.631 683.403 185.667C683.443 185.704 683.475 185.747 683.497 185.796L687.301 193.783C687.347 193.88 687.353 193.991 687.317 194.092C687.281 194.193 687.207 194.276 687.11 194.323C687.055 194.348 686.996 194.361 686.936 194.363Z" fill="#E86562"/>
<path d="M683.144 200.313C683.068 200.313 682.993 200.291 682.928 200.25C682.863 200.209 682.812 200.151 682.779 200.081L678.975 192.095C678.929 191.998 678.923 191.887 678.959 191.785C678.995 191.684 679.069 191.601 679.166 191.555C679.263 191.509 679.374 191.503 679.475 191.539C679.576 191.575 679.659 191.649 679.706 191.746L683.514 199.732C683.537 199.781 683.55 199.833 683.553 199.887C683.556 199.941 683.548 199.994 683.53 200.045C683.512 200.096 683.484 200.142 683.447 200.182C683.411 200.222 683.367 200.254 683.319 200.276C683.264 200.301 683.204 200.314 683.144 200.313Z" fill="#E86562"/>
<path d="M702.09 210.325C702.027 210.325 701.965 210.31 701.909 210.282C701.852 210.254 701.803 210.213 701.766 210.162C699.236 206.798 699.232 202.857 701.766 199.4C701.83 199.317 701.925 199.263 702.028 199.249C702.132 199.234 702.238 199.26 702.322 199.322C702.407 199.383 702.465 199.475 702.484 199.578C702.503 199.681 702.481 199.787 702.423 199.874C701.067 201.737 699.269 205.487 702.423 209.675C702.455 209.718 702.479 209.767 702.492 209.818C702.505 209.87 702.508 209.924 702.5 209.976C702.493 210.029 702.475 210.08 702.448 210.126C702.421 210.172 702.385 210.212 702.342 210.244C702.27 210.298 702.181 210.327 702.09 210.325Z" fill="#E86562"/>
<path d="M807.549 208.632H807.346C801.505 208.568 796.434 205.641 794.108 200.991C794.067 200.919 794.042 200.839 794.033 200.757C794.024 200.675 794.032 200.592 794.056 200.514C794.08 200.435 794.12 200.362 794.173 200.299C794.227 200.236 794.292 200.184 794.366 200.147C794.44 200.11 794.52 200.089 794.603 200.084C794.685 200.079 794.767 200.091 794.845 200.119C794.923 200.147 794.994 200.191 795.054 200.247C795.114 200.303 795.163 200.371 795.196 200.447C797.315 204.688 801.979 207.346 807.375 207.415H807.562C813.034 207.415 817.829 204.753 820.106 200.435C820.189 200.304 820.318 200.21 820.467 200.171C820.616 200.131 820.774 200.15 820.91 200.222C821.047 200.294 821.151 200.415 821.202 200.56C821.253 200.706 821.247 200.865 821.186 201.007C818.681 205.723 813.473 208.632 807.549 208.632Z" fill="black"/>
<path d="M806.438 122.157C780.5 122.157 774.232 153.289 779.855 174.42L833.89 171.693C841.022 148.536 825.892 117.624 806.438 122.157Z" fill="black"/>
<path d="M819.185 164.498V186.965C819.185 190.058 817.956 193.025 815.768 195.212C813.579 197.4 810.612 198.629 807.517 198.629C804.423 198.629 801.455 197.4 799.267 195.212C797.079 193.025 795.85 190.058 795.85 186.965V164.498H819.185Z" fill="#FF8F78"/>
<path d="M819.18 170.553C815.324 189.323 797.664 185.264 795.837 169.997L819.18 170.553Z" fill="#E86562"/>
<path d="M824.596 154.551C824.596 165.947 817.244 176.807 807.736 176.592C798.435 176.377 790.661 165.947 790.661 154.551C790.661 143.155 794.977 134.385 806.872 133.593C819.838 132.729 824.596 143.155 824.596 154.551Z" fill="#FF8F78"/>
<path d="M790.762 154.015C791.842 148.074 794.416 139.437 802.637 136.394C811.499 147.217 822.529 142.481 826.386 152.595L824.377 133.593L803.627 129.486L789.362 138.346L787.417 150.013L790.762 154.015Z" fill="black"/>
<path d="M792.794 159.44C795.058 158.365 795.752 155.091 794.343 152.127C792.935 149.163 789.958 147.632 787.693 148.707C785.429 149.782 784.736 153.057 786.144 156.021C787.553 158.985 790.53 160.516 792.794 159.44Z" fill="#FF8F78"/>
<path d="M820.415 152.063C819.006 155.026 819.7 158.301 821.965 159.368C824.231 160.435 827.207 158.913 828.615 155.951C830.024 152.988 829.33 149.709 827.064 148.646C824.799 147.582 821.823 149.1 820.415 152.063Z" fill="#FF8F78"/>
<path d="M803.94 150.699C803.94 151.767 803.197 152.627 802.279 152.627C801.362 152.627 800.623 151.767 800.623 150.699C800.623 149.632 801.366 148.772 802.279 148.772C803.193 148.772 803.94 149.636 803.94 150.699Z" fill="black"/>
<path d="M814.629 150.699C814.629 151.767 813.886 152.627 812.973 152.627C812.06 152.627 811.312 151.767 811.312 150.699C811.312 149.632 812.055 148.772 812.973 148.772C813.89 148.772 814.629 149.636 814.629 150.699Z" fill="black"/>
<path d="M807.728 157.939C807.487 157.939 807.255 157.844 807.085 157.673C806.914 157.503 806.818 157.271 806.818 157.03V153.978C806.818 153.737 806.914 153.506 807.085 153.336C807.255 153.165 807.487 153.069 807.728 153.069C807.969 153.069 808.2 153.165 808.371 153.336C808.541 153.506 808.637 153.737 808.637 153.978V157.03C808.637 157.271 808.541 157.503 808.371 157.673C808.2 157.844 807.969 157.939 807.728 157.939Z" fill="#E86562"/>
<path d="M804.956 145.862C804.984 146.998 803.523 147.002 801.562 147.38C799.601 147.757 797.932 147.692 797.847 147.233C797.762 146.775 799.276 146.093 801.241 145.712C803.206 145.33 804.931 145.001 804.956 145.862Z" fill="black"/>
<path d="M810.318 145.647C810.285 146.783 811.747 146.787 813.712 147.164C815.677 147.542 817.337 147.477 817.427 147.018C817.516 146.56 815.998 145.878 814.033 145.501C812.068 145.123 810.318 144.786 810.318 145.647Z" fill="black"/>
<path d="M803.372 162.801C805.727 167.696 811.086 167.197 813.115 162.026C810.602 163.629 806.06 163.495 803.372 162.801Z" fill="black"/>
<path d="M802.84 161.454C802.983 161.916 803.16 162.366 803.372 162.801C806.059 163.495 810.602 163.613 813.115 162.026C813.276 161.62 813.412 161.204 813.521 160.78L802.84 161.454Z" fill="white"/>
<path opacity="0.6" d="M818.908 156.206C818.908 156.588 818.795 156.96 818.583 157.277C818.372 157.594 818.07 157.842 817.718 157.987C817.366 158.133 816.978 158.172 816.604 158.097C816.23 158.023 815.886 157.839 815.617 157.57C815.347 157.3 815.163 156.957 815.089 156.583C815.014 156.209 815.053 155.821 815.199 155.469C815.345 155.117 815.592 154.815 815.909 154.604C816.226 154.392 816.599 154.279 816.98 154.279C817.233 154.278 817.484 154.328 817.719 154.424C817.953 154.521 818.166 154.663 818.345 154.842C818.524 155.021 818.666 155.234 818.763 155.468C818.859 155.702 818.909 155.953 818.908 156.206Z" fill="#E86562"/>
<path opacity="0.6" d="M801.107 156.612C801.107 156.994 800.994 157.367 800.781 157.684C800.569 158.001 800.268 158.248 799.915 158.394C799.563 158.539 799.175 158.577 798.801 158.503C798.426 158.428 798.083 158.244 797.813 157.974C797.544 157.704 797.361 157.36 797.287 156.986C797.213 156.612 797.251 156.224 797.398 155.872C797.545 155.52 797.792 155.219 798.11 155.008C798.428 154.796 798.801 154.684 799.182 154.685C799.435 154.685 799.686 154.735 799.92 154.831C800.153 154.928 800.366 155.07 800.545 155.249C800.723 155.429 800.865 155.641 800.961 155.875C801.058 156.109 801.107 156.359 801.107 156.612Z" fill="#E86562"/>
<path d="M964.429 601.377H631.163V603H964.429V601.377Z" fill="black"/>
</g>
<defs>
<clipPath id="clip0">
<rect width="1031" height="603" fill="white"/>
</clipPath>
</defs>
</svg>
