<svg width="478" height="456" viewBox="0 0 798 556" fill="none" xmlns="http://www.w3.org/2000/svg">
    <path d="M258.539 342.594C226.225 325.856 185.167 325.096 148.671 319.39C114.836 314.064 53.2491 290.479 28.5383 264.612C-14.0404 220.485 -11.3792 123.863 52.869 93.0502C126.621 57.6728 219.382 90.007 299.597 100.658C423.152 117.016 449.763 21.5346 569.896 5.17728C615.896 -1.28956 681.285 12.7853 703.715 59.5748C732.227 118.918 694.211 187.39 737.169 243.69C753.136 264.612 856.922 353.245 750.855 388.242C712.839 400.796 674.062 408.784 635.285 418.294C598.028 427.043 561.912 437.695 528.458 456.715C483.978 481.821 434.557 519.481 383.234 494.375C317.465 460.899 318.606 373.407 258.539 342.594Z" fill="#CDCDD2" />
    <path d="M95.4493 270.318C-32.2868 465.845 211.78 556 365.748 556C517.435 556 688.89 498.94 688.89 322.813C688.89 -130.246 314.425 -65.5774 95.4493 270.318Z" fill="#EBEBEB" />
    <path d="M701.296 370.532C701.296 370.532 695.447 360.506 692.606 355.158C689.765 349.811 687.259 343.127 687.259 343.127C687.259 343.127 694.277 347.304 696.45 348.975C698.622 350.646 707.312 361.007 707.312 361.007L709.818 357.999L706.81 348.307L716.503 359.169L721.182 339.45L728.2 358.166L741.569 341.456L742.404 358.166L758.781 345.132L752.932 365.519L746.582 374.209H701.797L701.296 370.532Z" fill="#92E3A9" stroke="#263238" stroke-miterlimit="10" />
    <path d="M698.791 370.532C698.791 370.532 695.114 368.861 688.764 361.341C682.414 353.821 677.902 345.967 677.902 345.967C677.902 345.967 692.107 353.989 697.12 357.665C702.133 361.341 708.817 369.697 708.817 369.697C708.817 369.697 704.64 359.336 704.138 354.323C703.637 349.31 703.303 338.448 703.303 338.448C703.303 338.448 715.334 350.479 716.337 353.821C717.34 357.164 721.685 368.527 721.685 368.527C721.685 368.527 724.191 359.336 725.027 353.153C725.862 346.97 732.547 336.776 732.547 336.776C732.547 336.776 733.382 343.795 733.883 350.981C734.385 358.166 730.207 371.368 730.207 371.368C730.207 371.368 735.555 358.333 741.069 352.15C746.584 345.967 754.772 339.116 754.772 339.116C754.772 339.116 750.594 352.15 748.923 357.832C747.252 363.514 742.573 370.866 742.573 370.866C742.573 370.866 750.928 360.506 755.106 356.662C759.284 352.819 768.141 347.973 768.141 347.973C768.141 347.973 763.462 356.662 760.119 361.676C756.777 366.689 750.093 374.209 750.093 374.209H698.624V370.532H698.791Z" fill="#92E3A9" stroke="#263238" stroke-miterlimit="10" />
    <path d="M757.613 369.697L754.773 395.097L749.759 438.712H697.455L692.441 395.097L689.601 369.697H757.613Z" fill="white" stroke="#263238" stroke-miterlimit="10" />
    <path d="M754.769 395.097L749.755 438.712H697.451L692.438 395.097H754.769Z" fill="#92E3A9" stroke="#263238" stroke-miterlimit="10" />
    <path d="M702.134 407.296C703.518 407.296 704.64 406.174 704.64 404.789C704.64 403.405 703.518 402.283 702.134 402.283C700.749 402.283 699.627 403.405 699.627 404.789C699.627 406.174 700.749 407.296 702.134 407.296Z" fill="#263238" />
    <path d="M720.514 407.296C721.899 407.296 723.021 406.174 723.021 404.789C723.021 403.405 721.899 402.283 720.514 402.283C719.13 402.283 718.008 403.405 718.008 404.789C718.008 406.174 719.13 407.296 720.514 407.296Z" fill="#263238" />
    <path d="M709.319 420.163C710.703 420.163 711.826 419.041 711.826 417.657C711.826 416.272 710.703 415.15 709.319 415.15C707.935 415.15 706.812 416.272 706.812 417.657C706.812 419.041 707.935 420.163 709.319 420.163Z" fill="#263238" />
    <path d="M731.377 420.163C732.761 420.163 733.883 419.041 733.883 417.657C733.883 416.272 732.761 415.15 731.377 415.15C729.992 415.15 728.87 416.272 728.87 417.657C728.87 419.041 729.992 420.163 731.377 420.163Z" fill="#263238" />
    <path d="M746.085 420.163C747.469 420.163 748.591 419.041 748.591 417.657C748.591 416.272 747.469 415.15 746.085 415.15C744.7 415.15 743.578 416.272 743.578 417.657C743.578 419.041 744.7 420.163 746.085 420.163Z" fill="#263238" />
    <path d="M738.895 407.296C740.28 407.296 741.402 406.174 741.402 404.789C741.402 403.405 740.28 402.283 738.895 402.283C737.511 402.283 736.389 403.405 736.389 404.789C736.389 406.174 737.511 407.296 738.895 407.296Z" fill="#263238" />
    <path d="M702.134 430.691C703.518 430.691 704.64 429.569 704.64 428.184C704.64 426.8 703.518 425.678 702.134 425.678C700.749 425.678 699.627 426.8 699.627 428.184C699.627 429.569 700.749 430.691 702.134 430.691Z" fill="#263238" />
    <path d="M720.514 430.691C721.899 430.691 723.021 429.569 723.021 428.184C723.021 426.8 721.899 425.678 720.514 425.678C719.13 425.678 718.008 426.8 718.008 428.184C718.008 429.569 719.13 430.691 720.514 430.691Z" fill="#263238" />
    <path d="M738.895 430.691C740.28 430.691 741.402 429.569 741.402 428.184C741.402 426.8 740.28 425.678 738.895 425.678C737.511 425.678 736.389 426.8 736.389 428.184C736.389 429.569 737.511 430.691 738.895 430.691Z" fill="#263238" />
    <path d="M447.546 156.303C447.576 143.567 440.867 133.226 432.561 133.206C424.255 133.186 417.497 143.495 417.467 156.231C417.437 168.968 424.146 179.308 432.452 179.328C440.758 179.348 447.516 169.039 447.546 156.303Z" fill="white" stroke="#263238" stroke-miterlimit="10" stroke-linecap="round" stroke-linejoin="round" />
    <path d="M451.469 98.648C451.469 98.648 443.281 103.327 435.594 98.3138C427.907 93.3005 433.255 90.961 434.758 87.786C436.262 84.6109 432.419 83.9425 431.583 79.5977C430.748 75.2529 433.589 71.9107 435.093 71.4094C436.597 71.0752 436.262 66.7304 436.262 62.5527C436.262 58.375 441.276 54.3644 443.615 54.3644C445.955 54.3644 447.459 51.1894 448.963 47.3459C450.467 43.5024 453.642 39.9932 458.989 42.3327C464.337 44.6722 467.177 44.6722 469.851 40.8287C472.525 36.9852 479.209 36.1497 481.549 38.155C483.888 40.1603 485.058 44.0037 489.737 40.1603C494.416 36.3168 500.265 36.9852 502.938 39.8261C505.612 42.4998 505.278 45.6748 509.456 44.1709C513.633 42.6669 520.652 45.0064 522.323 49.5183C523.994 54.0302 532.349 59.2105 535.524 58.0408C538.699 56.871 544.047 58.0408 541.373 63.8896C538.699 69.7383 541.707 73.5818 544.047 73.5818C546.386 73.5818 551.4 75.0858 548.726 80.099C546.052 85.1122 544.047 88.9557 547.222 90.6268C550.397 92.1308 555.41 92.6321 551.567 99.1493C547.723 105.666 544.548 105.332 545.718 109.176C546.888 113.019 549.227 114.189 545.718 116.863C542.209 119.536 538.031 120.706 538.031 123.046C538.031 125.385 542.71 126.555 537.196 128.393C531.848 130.398 527.503 130.733 527.503 130.733C527.503 130.733 519.816 109.844 497.591 102.826C475.533 95.8071 462.665 96.6427 457.652 99.3164C452.639 101.99 451.469 98.648 451.469 98.648Z" fill="#263238" stroke="#263238" stroke-miterlimit="10" stroke-linecap="round" stroke-linejoin="round" />
    <path d="M459.323 240.689L430.915 253.724C430.915 253.724 416.209 335.105 417.212 357.665C418.215 380.224 430.915 436.373 430.915 436.373H499.095C499.095 436.373 488.567 367.691 493.915 342.959C499.095 318.227 511.795 250.716 511.795 250.716C511.795 250.716 490.74 244.867 484.557 243.864C478.206 242.862 459.323 240.689 459.323 240.689Z" fill="white" stroke="#263238" stroke-miterlimit="10" />
    <path d="M426.737 278.79L505.278 285.642C504.609 288.984 503.941 292.326 503.44 295.668L425.233 288.984C425.735 285.307 426.236 281.965 426.737 278.79ZM493.915 342.96C494.583 340.119 495.251 336.777 495.92 332.933L419.552 326.416C419.05 329.925 418.716 333.267 418.382 336.609L493.915 342.96ZM500.599 309.204L422.894 302.519C422.392 305.862 421.891 309.204 421.39 312.713L498.594 319.397C499.429 316.055 500.098 312.713 500.599 309.204ZM417.379 351.482C417.212 353.822 417.212 355.994 417.379 357.832C417.379 359.002 417.546 360.339 417.713 361.843L492.578 366.522C492.578 363.012 492.578 359.503 492.578 356.328L417.379 351.482ZM431.416 253.557L430.915 253.724C430.915 253.724 430.247 257.4 429.244 263.583L508.119 270.435C508.787 266.591 509.456 263.249 509.957 260.408L431.416 253.557ZM495.084 403.118L424.064 402.283C424.732 405.792 425.4 409.301 426.069 412.476L496.254 413.312C495.753 409.97 495.419 406.628 495.084 403.118ZM421.056 386.24L493.915 390.585C493.58 387.243 493.413 383.734 493.246 380.392L419.552 376.047C419.886 379.222 420.387 382.731 421.056 386.24Z" fill="#263238" />
    <path d="M455.148 225.984C455.148 225.984 449.3 248.042 448.798 259.573C448.297 271.103 460.329 280.628 477.708 278.957C495.087 277.453 498.095 258.57 498.095 253.724C498.095 249.045 499.098 209.106 499.098 209.106C499.098 209.106 490.742 216.459 480.716 222.809C470.856 229.159 455.148 225.984 455.148 225.984Z" fill="#B5B5B5" stroke="#263238" stroke-miterlimit="10" />
    <path d="M470.858 244.867C487.235 237.013 495.423 221.639 499.1 211.78C499.1 210.109 499.1 209.106 499.1 209.106C499.1 209.106 490.744 216.459 480.718 222.809C470.691 229.159 454.983 225.984 454.983 225.984C454.983 225.984 451.307 239.687 449.636 251.217C455.652 250.549 462.837 248.711 470.858 244.867Z" fill="#263238" stroke="#263238" stroke-miterlimit="10" />
    <path d="M527 141.762C527 141.762 526.332 118.534 517.642 105.165C508.952 91.7965 490.738 83.7753 470.518 87.2846C445.284 91.6294 433.921 110.513 429.91 126.555C425.9 142.43 430.579 165.825 430.579 181.7C430.579 197.576 449.128 226.318 454.475 230.83C459.823 235.509 468.011 237.013 477.369 232.334C485.891 227.989 500.096 213.117 508.785 204.427C517.475 195.738 522.655 170.17 523.825 164.154C525.329 158.138 527 141.762 527 141.762Z" fill="#B5B5B5" stroke="#263238" stroke-miterlimit="10" stroke-linecap="round" stroke-linejoin="round" />
    <path d="M456.48 187.048C456.48 187.048 455.644 192.061 467.342 191.393" stroke="#263238" stroke-miterlimit="10" stroke-linecap="round" stroke-linejoin="round" />
    <path d="M453.14 200.249C453.14 200.249 466.675 209.607 480.211 200.584" stroke="#263238" stroke-miterlimit="10" stroke-linecap="round" stroke-linejoin="round" />
    <path d="M480.211 169.167C480.211 169.167 483.72 163.319 493.747 168.332" stroke="#263238" stroke-width="2" stroke-miterlimit="10" stroke-linecap="round" stroke-linejoin="round" />
    <path d="M453.142 165.658C453.142 168.499 451.805 170.671 450.301 170.671C448.63 170.671 447.46 168.499 447.46 165.658C447.46 162.817 448.797 160.645 450.301 160.645C451.805 160.645 453.142 162.985 453.142 165.658Z" fill="#263238" />
    <path d="M440.605 149.783C440.605 149.783 444.115 142.096 455.645 145.939" stroke="#263238" stroke-miterlimit="10" stroke-linecap="round" stroke-linejoin="round" />
    <path d="M475.199 148.947C475.199 148.947 486.061 143.098 498.093 152.122" stroke="#263238" stroke-miterlimit="10" stroke-linecap="round" stroke-linejoin="round" />
    <path d="M470.52 87.285C445.287 91.6298 433.924 110.513 429.913 126.555C429.078 129.897 428.576 133.574 428.409 137.417C429.746 133.407 436.43 115.526 455.648 110.68C477.372 105.333 496.422 112.184 502.939 121.542C509.456 130.9 507.952 142.932 510.292 148.614C511.796 152.29 519.149 157.804 524.329 161.481C525.499 154.295 526.836 141.929 526.836 141.929C526.836 141.929 526.167 118.701 517.478 105.333C509.122 91.964 490.907 83.7757 470.52 87.285Z" fill="#263238" stroke="#263238" stroke-miterlimit="10" stroke-linecap="round" stroke-linejoin="round" />
    <path d="M520.485 145.939C520.485 145.939 522.49 125.385 516.642 111.849C510.793 98.3137 503.774 92.465 503.774 92.465C503.774 92.465 519.984 100.987 525.833 109.176C531.681 117.364 532.35 137.083 530.846 150.618L518.814 148.613L520.485 145.939Z" fill="#92E3A9" stroke="#263238" stroke-miterlimit="10" />
    <path d="M536.193 165.992C533.854 178.525 525.331 187.382 517.143 185.878C508.954 184.374 504.275 173.011 506.615 160.478C508.954 147.945 517.477 139.088 525.665 140.592C533.686 142.096 538.533 153.626 536.193 165.992Z" fill="white" stroke="#263238" stroke-miterlimit="10" stroke-linecap="round" stroke-linejoin="round" />
    <path d="M534.762 167.803C536.542 158.278 532.909 149.608 526.649 148.438C520.39 147.269 513.873 154.044 512.094 163.569C510.314 173.095 513.947 181.765 520.206 182.934C526.466 184.104 532.983 177.329 534.762 167.803Z" fill="#92E3A9" stroke="#263238" stroke-miterlimit="10" />
    <path d="M439.938 385.239C443.781 412.979 448.628 437.878 448.628 437.878H420.052C420.052 437.878 412.699 400.111 403.843 379.056C398.829 367.191 397.66 362.345 397.493 360.34C393.649 369.698 369.251 426.848 364.907 428.854C360.228 431.026 342.848 427.35 336.498 425.177C330.148 423.005 329.647 414.148 330.817 410.472C331.819 406.796 375.936 300.348 380.113 293.497C384.291 286.645 388.469 274.613 388.97 271.438C389.471 268.263 388.469 260.91 393.148 258.404C395.989 256.733 416.042 252.221 431.583 248.712C441.776 246.539 449.797 244.701 449.797 244.701C449.797 244.701 437.264 291.324 435.092 324.411C434.256 339.284 436.763 363.18 439.938 385.239Z" fill="#92E3A9" stroke="#263238" stroke-miterlimit="10" />
    <path d="M439.938 385.238C436.262 379.222 421.723 353.821 419.718 327.251C418.047 303.522 427.405 264.419 431.583 248.711C441.776 246.538 449.797 244.7 449.797 244.7C449.797 244.7 437.264 291.323 435.092 324.41C434.256 339.283 436.763 363.179 439.938 385.238Z" fill="#92E3A9" stroke="#263238" stroke-miterlimit="10" />
    <path d="M401.504 305.527C402.841 299.846 403.843 296.838 403.843 296.838" stroke="#263238" stroke-miterlimit="10" />
    <path d="M397.993 359.169C397.993 359.169 394.818 348.14 397.492 328.254C398.16 323.074 398.996 318.395 399.664 314.217" stroke="#263238" stroke-miterlimit="10" />
    <path d="M628.769 363.848C616.737 363.347 556.411 325.747 556.411 325.747C556.411 325.747 537.528 362.845 537.027 370.365C536.526 377.885 551.732 438.044 551.732 438.044H487.229C487.229 438.044 485.224 416.988 484.889 393.76C484.722 383.065 484.889 372.036 485.725 362.344C488.399 331.763 498.759 245.369 498.759 245.369L509.287 246.371C509.287 246.371 512.295 247.374 516.974 249.045C529.34 253.39 553.738 262.247 564.433 268.43C579.138 276.952 599.525 290.989 609.552 297.506C619.578 303.856 643.14 318.395 647.819 337.779C652.331 356.829 640.801 364.349 628.769 363.848Z" fill="#92E3A9" stroke="#263238" stroke-miterlimit="10" />
    <path d="M516.807 248.878C515.47 270.435 511.292 321.57 502.269 346.302C493.579 370.031 487.396 386.742 484.889 393.76C484.722 383.065 484.889 372.036 485.725 362.344C488.399 331.763 498.759 245.369 498.759 245.369L509.287 246.371C509.12 246.204 512.128 247.207 516.807 248.878Z" stroke="#263238" stroke-miterlimit="10" />
    <path d="M556.41 325.747L532.18 318.228" stroke="#263238" stroke-miterlimit="10" />
    <path d="M521.988 301.851C522.657 309.872 524.829 318.562 530.678 323.408" stroke="#263238" stroke-miterlimit="10" />
    <path d="M522.322 285.474C522.322 285.474 521.82 289.318 521.82 294.498" stroke="#263238" stroke-miterlimit="10" />
    <path d="M519.146 313.381C519.146 313.381 524.994 324.076 531.679 327.92" stroke="#263238" stroke-miterlimit="10" />
    <path d="M555.412 236.345C555.412 236.345 553.908 230.83 553.908 224.313C553.908 217.796 555.412 214.286 553.073 214.454C550.733 214.621 546.555 217.629 545.386 222.809C544.049 227.989 546.89 232.668 547.391 234.507C547.892 236.178 547.892 237.682 547.892 237.682C547.892 237.682 529.176 238.35 525.667 238.35C522.158 238.35 518.815 240.355 518.815 243.53C518.815 246.705 522.492 248.544 522.492 248.544L524.163 249.379C524.163 249.379 521.99 253.39 523.494 255.562C524.998 257.734 526.502 258.737 526.502 258.737C526.502 258.737 524.998 260.742 526.001 263.249C527.004 265.756 528.842 266.925 528.842 266.925C528.842 266.925 526.001 269.432 529.677 272.941C533.354 276.451 541.375 276.618 546.89 276.618C552.404 276.618 557.25 276.785 557.25 276.785L559.59 276.952L579.308 306.363L598.024 285.474C598.024 285.474 570.452 258.737 566.775 254.058C563.099 249.379 555.412 236.345 555.412 236.345Z" fill="#B5B5B5" stroke="#263238" stroke-miterlimit="10" />
    <path d="M597.355 283.302L571.62 307.366C571.62 307.366 595.182 338.782 607.882 354.657C620.583 370.532 643.476 373.039 653.503 365.185C663.529 357.331 664.532 339.45 655.675 328.421C646.651 317.392 597.355 283.302 597.355 283.302Z" fill="#92E3A9" stroke="#263238" stroke-miterlimit="10" />
    <path d="M425.235 409.97C425.235 409.97 463.001 416.487 466.51 416.487C470.02 416.487 507.285 406.962 509.791 408.967C512.298 410.972 528.842 425.009 533.019 429.02C537.03 433.031 539.035 437.041 539.035 437.041H504.277L493.749 434.535C493.749 434.535 484.725 438.712 479.712 438.712C474.699 438.712 457.821 437.71 457.821 437.71L428.243 437.208C428.243 437.375 418.216 420.498 425.235 409.97Z" fill="#B5B5B5" stroke="#263238" stroke-miterlimit="10" />
    <path d="M514.801 437.208C514.801 437.208 506.279 427.683 502.77 425.176C499.26 422.67 495.751 421.667 495.751 421.667" stroke="#263238" stroke-miterlimit="10" />
    <path d="M526.502 437.71C526.502 437.71 509.958 419.662 507.953 418.158C505.948 416.654 500.935 415.15 500.935 415.15" stroke="#263238" stroke-miterlimit="10" />
    <path d="M342.85 392.925C342.85 392.925 327.81 404.956 325.303 412.978C322.797 420.999 326.306 430.524 334.327 433.532C342.348 436.54 432.252 438.211 432.252 438.211C430.748 438.879 424.231 432.696 427.907 424.508C430.414 418.993 437.433 410.972 437.433 410.972L362.401 391.922" fill="#92E3A9" />
    <path d="M342.85 392.925C342.85 392.925 327.81 404.956 325.303 412.978C322.797 420.999 326.306 430.524 334.327 433.532C342.348 436.54 432.252 438.211 432.252 438.211C430.748 438.879 424.231 432.696 427.907 424.508C430.414 418.993 437.433 410.972 437.433 410.972L362.401 391.922" stroke="#263238" stroke-miterlimit="10" />
    <path d="M469.516 434.869H161.202V438.879H469.516V434.869Z" fill="#263238" stroke="#263238" stroke-miterlimit="10" />
    <path d="M357.722 438.712H165.381L147.668 305.026H339.842L357.722 438.712Z" fill="white" stroke="#263238" stroke-miterlimit="10" />
    <path d="M353.712 438.713H161.538L143.657 305.026H335.998L353.712 438.713Z" fill="white" stroke="#263238" stroke-miterlimit="10" />
    <path d="M176.411 438.712H353.211L339.842 337.779C316.113 352.819 287.371 372.37 255.954 396.267C227.546 417.991 199.973 431.025 176.411 438.712Z" fill="#263238" stroke="#263238" stroke-miterlimit="10" />
    <path d="M242.584 382.397C249.598 382.397 255.284 377.16 255.284 370.699C255.284 364.239 249.598 359.002 242.584 359.002C235.57 359.002 229.884 364.239 229.884 370.699C229.884 377.16 235.57 382.397 242.584 382.397Z" fill="white" stroke="#263238" stroke-miterlimit="10" />
    <path d="M13.1475 438.712H784.851" stroke="#263238" stroke-miterlimit="10" />
</svg>
