<svg width="28" height="20" viewBox="0 0 28 20" fill="none" xmlns="http://www.w3.org/2000/svg">
<path fill-rule="evenodd" clip-rule="evenodd" d="M27.9774 1.25123V17.3147L12.2132 19.2104H12.313V2.04942L16.8027 1.84987L16.9025 6.43944L17.4014 5.54148L18 6.43944L18.2993 5.54148L18.9978 6.33967L19.2971 5.44171L19.8957 6.33967L20.195 5.34193L20.5941 6.23989V1.65032L27.9774 1.25123ZM12.1134 2.04942V19.1106L0.739258 17.1152V1.351L12.1134 2.04942ZM0.739258 1.15146L16.0046 0.353271L27.9774 1.05168H27.8776L12.2132 1.84987L0.938804 1.15146H0.739258ZM15.3062 16.5165C15.3062 16.6163 15.2064 16.7161 15.1066 16.7161C15.0068 16.7161 15.0068 16.6163 15.0068 16.5165C15.0068 16.5165 15.0068 16.5165 15.0068 16.4168C15.0068 16.317 14.9071 16.317 14.9071 16.317C14.8073 16.317 14.7075 16.4168 14.7075 16.4168C14.7075 16.5165 14.7075 16.5165 14.7075 16.6163C14.7075 16.8159 14.9071 16.9156 15.1066 16.9156C15.3062 16.9156 15.5057 16.7161 15.5057 16.5165C15.5057 16.1174 15.5057 15.8181 15.5057 15.3193C16.0046 15.3193 16.4037 15.2195 17.0023 15.2195C16.9025 14.4213 16.2041 14.0222 15.5057 14.0222C15.5057 14.0222 15.5057 14.0222 15.5057 13.9224C15.5057 13.8227 15.4059 13.8227 15.4059 13.8227C15.3062 13.8227 15.3062 13.9224 15.3062 13.9224C15.3062 14.0222 15.3062 14.0222 15.3062 14.122C14.508 14.2218 14.0091 14.7206 13.9093 15.5188C14.4082 15.419 14.8073 15.419 15.3062 15.3193C15.3062 15.9179 15.3062 16.1174 15.3062 16.5165ZM20.2948 15.1197C20.2948 15.5188 20.2948 15.6186 20.2948 16.1174C19.9955 16.1174 19.8957 16.1174 19.4966 16.1174C19.4966 16.2172 19.4966 16.2172 19.4966 16.317C20.2948 16.317 20.5941 16.2172 21.1928 16.2172C21.1928 16.1174 21.1928 16.0177 21.1928 16.0177C20.8935 16.0177 20.7937 16.0177 20.3946 16.0177C20.3946 15.7184 20.3946 15.5188 20.3946 15.1197C20.8935 15.0199 21.2925 14.6208 21.2925 14.0222V13.3238C20.4944 13.4236 20.0953 13.4236 19.3969 13.5233V14.3215C19.3969 14.8204 19.7959 15.1197 20.2948 15.1197ZM18.5987 13.224C18.5987 14.6208 18.5987 15.419 18.4989 16.9156C20.0953 16.8159 20.8935 16.7161 22.3901 16.5165C22.3901 15.0199 22.3901 14.3215 22.3901 13.0245C20.7937 13.0245 20.0953 13.1242 18.5987 13.224ZM22.1905 16.4168C20.7937 16.5165 20.0953 16.6163 18.4989 16.7161C18.6984 15.3193 18.6984 14.6208 18.6984 13.3238C20.0953 13.1242 20.8935 13.1242 22.1905 13.0245C22.1905 14.3215 22.1905 14.9202 22.1905 16.4168ZM24.3855 15.5188C24.4853 15.5188 24.4853 15.5188 24.5851 15.5188C24.5851 14.8204 24.5851 14.5211 24.5851 13.9224C24.7846 13.9224 24.8844 13.9224 25.0839 13.9224C24.8844 13.6231 24.6848 13.4236 24.4853 12.9247C24.2857 13.3238 24.186 13.5233 23.9864 14.0222C24.0862 14.0222 24.186 14.0222 24.3855 14.0222C24.3855 14.5211 24.3855 14.8204 24.3855 15.5188ZM25.9819 15.3193C26.0817 15.3193 26.1814 15.3193 26.1814 15.3193C26.1814 14.7206 26.1814 14.3215 26.1814 13.7229C26.381 13.7229 26.4808 13.7229 26.6803 13.7229C26.4808 13.3238 26.2812 13.0245 25.9819 12.7252C25.7823 13.1242 25.6826 13.4236 25.483 13.8227C25.6826 13.7229 25.7823 13.7229 25.8821 13.7229C25.9819 14.4213 25.9819 14.7206 25.9819 15.3193ZM26.6803 15.5188C25.5828 15.6186 24.9842 15.7184 23.8867 15.8181C23.8867 15.9179 23.8867 15.9179 23.8867 16.0177C24.9842 15.9179 25.5828 15.8181 26.6803 15.7184C26.6803 15.6186 26.6803 15.6186 26.6803 15.5188ZM23.3878 12.8249C23.3878 14.2218 23.3878 14.8204 23.4876 16.317C24.8844 16.2172 25.6826 16.1174 27.1792 16.0177C27.1792 14.5211 27.1792 13.8227 27.1792 12.3261C25.6826 12.6254 24.8844 12.6254 23.3878 12.8249ZM27.0794 15.9179C25.6826 16.0177 25.0839 16.1174 23.4876 16.2172C23.4876 14.8204 23.4876 14.2218 23.4876 12.8249C24.8844 12.7252 25.6826 12.7252 27.0794 12.5256C27.0794 13.8227 27.0794 14.5211 27.0794 15.9179ZM13.5102 13.6231C13.5102 15.1197 13.5102 15.9179 13.5102 17.4145C15.0068 17.3147 15.805 17.215 17.4014 17.0154C17.4014 15.5188 17.4014 14.8204 17.4014 13.3238C15.9048 13.4236 15.1066 13.5233 13.5102 13.6231ZM17.3016 17.0154C15.805 17.1152 15.0068 17.215 13.61 17.3147C13.61 15.9179 13.61 15.1197 13.61 13.8227C15.1066 13.7229 15.7052 13.6231 17.3016 13.5233C17.3016 14.8204 17.3016 15.5188 17.3016 17.0154Z" fill="#7AE582"/>
</svg>
