<svg width="34" height="28" viewBox="0 0 34 28" fill="none" xmlns="http://www.w3.org/2000/svg">
<path d="M27.1783 21.0001H14.014C12.453 21.0001 11.0698 19.9543 10.6526 18.4577L6.20202 2.92321C5.95002 2.02441 5.12261 1.4 4.18601 1.4H0.700002C0.313601 1.4 0 1.0864 0 0.700002C0 0.313601 0.313601 0 0.700002 0H4.18601C5.74702 0 7.13022 1.0458 7.54742 2.54241L8.42522 5.60002H31.4987C32.1693 5.60002 32.7839 5.90802 33.1829 6.44562C33.5833 6.98322 33.7023 7.66082 33.5091 8.30202L30.4977 18.5921C30.0133 20.0425 28.6819 21.0001 27.1783 21.0001ZM8.82562 7.00002L11.9994 18.0769C12.25 18.9757 13.0774 19.6001 14.014 19.6001H27.1783C28.0659 19.6001 28.8807 19.0135 29.1607 18.1749L32.1693 7.90162C32.2337 7.68742 32.1931 7.46202 32.0601 7.28282C31.9271 7.10222 31.7227 7.00002 31.4987 7.00002H8.82562Z" fill="#CDCDD2"/>
<path d="M15.4006 28.0002C13.8564 28.0002 12.6006 26.7444 12.6006 25.2002C12.6006 23.656 13.8564 22.4001 15.4006 22.4001C16.9448 22.4001 18.2006 23.656 18.2006 25.2002C18.2006 26.7444 16.9448 28.0002 15.4006 28.0002ZM15.4006 23.8002C14.6278 23.8002 14.0006 24.4288 14.0006 25.2002C14.0006 25.9716 14.6278 26.6002 15.4006 26.6002C16.1734 26.6002 16.8006 25.9716 16.8006 25.2002C16.8006 24.4288 16.1734 23.8002 15.4006 23.8002Z" fill="#CDCDD2"/>
<path d="M25.1999 28.0002C23.6557 28.0002 22.3999 26.7444 22.3999 25.2002C22.3999 23.656 23.6557 22.4001 25.1999 22.4001C26.7441 22.4001 27.9999 23.656 27.9999 25.2002C27.9999 26.7444 26.7441 28.0002 25.1999 28.0002ZM25.1999 23.8002C24.4271 23.8002 23.7999 24.4288 23.7999 25.2002C23.7999 25.9716 24.4271 26.6002 25.1999 26.6002C25.9727 26.6002 26.5999 25.9716 26.5999 25.2002C26.5999 24.4288 25.9727 23.8002 25.1999 23.8002Z" fill="#CDCDD2"/>
</svg>
