<svg width="32" height="19" viewBox="0 0 32 19" fill="none" xmlns="http://www.w3.org/2000/svg">
<path d="M30.6731 18.5799H1.33464C1.14124 18.5799 1.00586 18.4251 1.00586 18.2511V1.32878C1.00586 1.15472 1.16058 1 1.33464 1H30.6731C30.8665 1 31.0018 1.15472 31.0018 1.32878V18.2317C31.0018 18.4251 30.8471 18.5799 30.6731 18.5799ZM1.66341 17.903H30.325V1.65755H1.66341V17.903Z" fill="#1A2531" stroke="#1A2531" stroke-width="0.5"/>
<path d="M6.53615 11.7337C5.39511 11.7337 4.4668 10.8054 4.4668 9.66433C4.4668 8.52328 5.39511 7.59497 6.53615 7.59497C7.6772 7.59497 8.60551 8.52328 8.60551 9.66433C8.60551 10.8054 7.65786 11.7337 6.53615 11.7337ZM6.53615 8.27186C5.76256 8.27186 5.14369 8.89074 5.14369 9.66433C5.14369 10.4379 5.76256 11.0568 6.53615 11.0568C7.30974 11.0568 7.92862 10.4379 7.92862 9.66433C7.92862 8.89074 7.2904 8.27186 6.53615 8.27186Z" fill="#1A2531" stroke="#1A2531" stroke-width="0.5"/>
<path d="M25.083 11.6563C23.942 11.6563 23.0137 10.728 23.0137 9.58693C23.0137 8.44589 23.942 7.51758 25.083 7.51758C26.2241 7.51758 27.1524 8.44589 27.1524 9.58693C27.1524 10.728 26.2241 11.6563 25.083 11.6563ZM25.083 8.19447C24.3094 8.19447 23.6906 8.81334 23.6906 9.58693C23.6906 10.3605 24.3094 10.9794 25.083 10.9794C25.8566 10.9794 26.4755 10.3605 26.4755 9.58693C26.4755 8.81334 25.8566 8.19447 25.083 8.19447Z" fill="#1A2531" stroke="#1A2531" stroke-width="0.5"/>
<path d="M15.7224 15.118C12.512 15.118 9.88184 12.7199 9.88184 9.76093C9.88184 6.80194 12.4927 4.40381 15.7224 4.40381C18.9328 4.40381 21.5631 6.80194 21.5631 9.76093C21.5631 12.7006 18.9522 15.118 15.7224 15.118ZM15.7224 5.04202C12.8795 5.04202 10.5587 7.15006 10.5587 9.74159C10.5587 12.3331 12.8795 14.4412 15.7224 14.4412C18.5654 14.4412 20.8862 12.3331 20.8862 9.74159C20.9055 7.15006 18.5847 5.04202 15.7224 5.04202Z" fill="#1A2531" stroke="#1A2531" stroke-width="0.5"/>
<path d="M1.33361 7.73029C1.25625 7.73029 1.15955 7.69161 1.10153 7.6336C0.966155 7.49822 0.966155 7.28548 1.10153 7.16944L6.76809 1.32883C6.90347 1.19345 7.1162 1.19345 7.23224 1.32883C7.36762 1.46421 7.36762 1.67694 7.23224 1.79298L1.58503 7.61426C1.50767 7.69161 1.43031 7.73029 1.33361 7.73029Z" fill="#1A2531" stroke="#1A2531" stroke-width="0.5"/>
<path d="M30.5947 7.32394C30.5174 7.32394 30.4207 7.28526 30.3627 7.22724L24.6187 1.73475C24.4834 1.59937 24.4834 1.38663 24.5994 1.27059C24.7348 1.13522 24.9475 1.13522 25.0636 1.25126L30.8075 6.76309C30.9428 6.89847 30.9428 7.11121 30.8268 7.22724C30.7688 7.28526 30.6721 7.32394 30.5947 7.32394Z" fill="#1A2531" stroke="#1A2531" stroke-width="0.5"/>
<path d="M6.99989 18.4251C6.92253 18.4251 6.82583 18.3864 6.76781 18.3284L1.10126 12.4878C0.965878 12.3524 0.985218 12.1397 1.10126 12.0236C1.23663 11.8882 1.44937 11.9076 1.56541 12.0236L7.23197 17.8449C7.36734 17.9803 7.348 18.193 7.23197 18.309C7.17395 18.3864 7.07725 18.4251 6.99989 18.4251Z" fill="#1A2531" stroke="#1A2531" stroke-width="0.5"/>
<path d="M24.8518 18.5025C24.7551 18.5025 24.6777 18.4638 24.6197 18.4058C24.4843 18.2704 24.5037 18.0577 24.6391 17.9417L30.3636 12.4105C30.499 12.2751 30.7118 12.2945 30.8278 12.4298C30.9632 12.5652 30.9438 12.778 30.8085 12.894L25.0839 18.4058C25.0259 18.4638 24.9292 18.5025 24.8518 18.5025Z" fill="#1A2531" stroke="#1A2531" stroke-width="0.5"/>
</svg>
