<svg width="27" height="20" viewBox="0 0 27 20" fill="none" xmlns="http://www.w3.org/2000/svg">
<path fill-rule="evenodd" clip-rule="evenodd" d="M26.6385 17.9392C26.6385 18.5222 26.1527 19.1052 25.4725 19.1052H1.18252C0.599559 19.1052 0.0166016 18.6194 0.0166016 17.9392V1.51919C0.0166016 0.936229 0.502399 0.353271 1.18252 0.353271H25.4725C26.1527 0.353271 26.6385 0.839069 26.6385 1.51919V17.9392ZM23.0435 5.21127C21.8776 5.21127 20.906 4.33683 20.906 3.26807C20.906 3.17091 20.906 3.07375 21.0032 2.97659H5.55472C5.55472 3.07375 5.55472 3.17091 5.55472 3.26807C5.55472 4.43399 4.68028 5.21127 3.61152 5.21127C3.51436 5.21127 3.32003 5.21127 3.22287 5.21127V14.2472C3.32003 14.2472 3.51436 14.2472 3.61152 14.2472C4.77744 14.2472 5.55472 15.1216 5.55472 16.1904C5.55472 16.2875 5.55472 16.3847 5.55472 16.4818H21.0032C20.906 16.3847 20.906 16.2875 20.906 16.1904C20.906 15.0244 21.8776 14.2472 23.0435 14.2472C23.1407 14.2472 23.2378 14.2472 23.4322 14.2472V5.21127C23.2378 5.21127 23.1407 5.21127 23.0435 5.21127ZM12.8417 13.6642V12.6926C12.2588 12.6926 11.5786 12.4983 11.2872 12.304L11.4815 11.138C11.8701 11.3324 12.5502 11.5267 13.036 11.5267C13.5218 11.5267 14.0076 11.3324 14.0076 11.0409C14.0076 10.6522 13.7162 10.3608 13.036 10.1664C11.9673 9.87496 11.2872 9.292 11.2872 8.41756C11.2872 7.54312 11.9673 6.96015 12.8417 6.86299V5.89139H13.8133V6.76584C14.5906 6.76584 14.8821 6.863 15.2707 6.96016L14.9792 8.12608C14.7849 8.02892 14.2991 7.83459 13.619 7.83459C13.036 7.83459 12.7446 8.12607 12.7446 8.32039C12.7446 8.61187 13.036 8.8062 13.9105 9.19484C15.0764 9.48632 15.465 10.0693 15.465 10.9437C15.465 11.6238 14.8821 12.4011 13.8133 12.5954V13.6642H12.8417ZM18.9628 9.68064C18.9628 12.8869 16.4366 15.4131 13.3275 15.4131C10.2184 15.4131 7.69224 12.8869 7.69224 9.68064C7.69224 6.66868 10.2184 4.14251 13.3275 4.14251C16.4366 4.14251 18.9628 6.66868 18.9628 9.68064ZM24.6952 16.3847C24.6952 16.8705 24.2094 17.4534 23.6265 17.4534H2.9314C2.4456 17.4534 1.86264 16.9676 1.86264 16.3847V3.17091C1.86264 2.68511 2.34844 2.19931 2.9314 2.19931H23.7236C24.2094 2.19931 24.7924 2.58795 24.7924 3.17091V16.3847H24.6952Z" fill="#7AE582"/>
</svg>
