<svg width="30" height="19" viewBox="0 0 30 19" fill="none" xmlns="http://www.w3.org/2000/svg">
<path d="M28.8242 19H1.02172C0.451913 19 0 18.5481 0 17.9783V1.02172C0 0.451913 0.451913 0 1.02172 0H28.8242C29.394 0 29.8459 0.451913 29.8459 1.02172V17.9783C29.8459 18.5481 29.3744 19 28.8242 19ZM1.02172 0.687694C0.825232 0.687694 0.687694 0.844881 0.687694 1.02172V17.9783C0.687694 18.1748 0.844881 18.3123 1.02172 18.3123H28.8242C29.0207 18.3123 29.1582 18.1551 29.1582 17.9783V1.02172C29.1582 0.825232 29.001 0.687694 28.8242 0.687694H1.02172Z" fill="#1A2531"/>
<path d="M29.3942 3.92969H0.628906V7.78077H29.3942V3.92969Z" fill="#1A2531"/>
<path d="M29.3942 8.11483H0.628944C0.43246 8.11483 0.294922 7.95765 0.294922 7.78081V3.92973C0.294922 3.73324 0.452108 3.5957 0.628944 3.5957H29.3942C29.5907 3.5957 29.7282 3.75289 29.7282 3.92973V7.78081C29.7282 7.95765 29.571 8.11483 29.3942 8.11483ZM0.962966 7.42714H29.0405V4.2441H0.962966V7.42714Z" fill="#1A2531"/>
</svg>
