<svg width="28" height="25" viewBox="0 0 28 25" fill="none" xmlns="http://www.w3.org/2000/svg">
<path fill-rule="evenodd" clip-rule="evenodd" d="M0.1 12L0.5 12.5C0.6 12.6 0.8 12.6 0.9 12.6C1 12.7 1.1 12.6 1.2 12.5L2.7 11.3C2.6 13.7 3 16 4.2 18.1C6.4 22.1 10.5 24.4 15 24.4C17 24.4 19.2 23.9 21 22.8C23.8 21.2 25.9 18.6 26.7 15.4C27.7 12.3 27.2 9 25.6 6.2C23.6 2.4 19.5 0 15.1 0C14.7 0 14.2 0 13.7 0.1C13.4 0.1 13.2 0.3 13.3 0.6V1.2C13.4 1.5 13.6 1.7 14 1.7C14.4 1.7 14.9 1.6 15.2 1.6C19 1.6 22.5 3.6 24.3 7C27.1 12 25.3 18.5 20.2 21.3C18.7 22.2 16.9 22.6 15.1 22.6C11.3 22.6 7.8 20.6 6 17.2C4.9 15.4 4.5 13.4 4.6 11.4L5.9 13C6.1 13.2 6.3 13.3 6.7 13.1L7.2 12.6C7.3 12.5 7.4 12.4 7.4 12.3C7.4 12.2 7.3 12.1 7.2 12L4.4 8.5C4.3 8.3 4.1 8.3 4 8.3C3.9 8.3 3.8 8.3 3.7 8.4L0.3 11.3C0.1 11.4 0 11.5 0 11.6C0 11.8 0 11.9 0.1 12Z" fill="#1A2531"/>
</svg>
