<svg width="9" height="17" viewBox="0 0 9 17" fill="none" xmlns="http://www.w3.org/2000/svg">
    <path fill-rule="evenodd" clip-rule="evenodd" d="M8.13569 0.080207L6.18425 0.077338C3.99156 0.077338 2.57498 1.64742 2.57498 4.07836V5.92314H0.611918C0.442364 5.92314 0.305744 6.07152 0.305744 6.25424V8.92678C0.305744 9.11072 0.442364 9.25869 0.611918 9.25869H2.57498V16.003C2.57498 16.1861 2.7116 16.3345 2.88116 16.3345H5.44205C5.61162 16.3345 5.74824 16.1861 5.74824 16.003V9.25869H8.04267C8.21224 9.25869 8.34982 9.11072 8.34982 8.92678L8.35079 6.25424C8.35079 6.16636 8.31882 6.08255 8.26068 6.02042C8.20351 5.95748 8.12503 5.92314 8.04364 5.92314H5.7492V4.35878C5.7492 3.60706 5.9149 3.22568 6.82085 3.22568H8.13569C8.30525 3.22568 8.44284 3.07729 8.44284 2.89416V0.412935C8.44284 0.229395 8.30525 0.0810239 8.13569 0.080207Z" fill="#757575" />
</svg>
