<svg width="64" height="12" viewBox="0 0 64 12" fill="none" xmlns="http://www.w3.org/2000/svg">
<path d="M31.2865 2.5559C31.9567 2.5559 32.4273 2.06769 32.4273 1.4359C32.4273 0.847179 31.9425 0.402051 31.2865 0.402051C30.6305 0.402051 30.1457 0.875897 30.1457 1.47897C30.1457 2.08205 30.6305 2.5559 31.2865 2.5559ZM24.2278 3.38872V3.87692H22.9729V5.31282H24.2278V11.4872H26.0103V5.31282H28.0495V3.87692H25.9532V3.41744C25.9532 2.59897 26.3383 2.18256 27.0798 2.18256C27.4506 2.18256 27.7928 2.31179 28.0637 2.49846L28.5628 1.14872C28.1636 0.861538 27.5646 0.732307 26.9515 0.732307C25.1832 0.732307 24.2278 1.78051 24.2278 3.38872ZM30.3881 11.4872H32.1706V3.81949H30.3881V11.4872Z" fill="#CDCDD2"/>
<path d="M34.5133 11.4872H36.2958V0.83282H34.5133V11.4872Z" fill="#CDCDD2"/>
<path d="M43.0897 9.79282C42.8187 10.0082 42.4622 10.1087 42.0915 10.1087C41.407 10.1087 41.0362 9.70667 41.0362 8.96V5.31282H43.0754V3.87692H41.0362V2.12513H39.2537V3.87692H37.9988V5.31282H39.2537V9.00308C39.2537 10.6974 40.2092 11.5877 41.8776 11.5877C42.5193 11.5877 43.161 11.4154 43.5888 11.0708L43.0897 9.79282Z" fill="#CDCDD2"/>
<path d="M46.7521 4.93949V3.81949H45.0551V11.4872H46.8376V7.7682C46.8376 6.20308 47.6932 5.39897 49.0479 5.39897C49.1763 5.39897 49.3046 5.41333 49.4615 5.44205V3.73333C48.1923 3.73333 47.2654 4.13538 46.7521 4.93949Z" fill="#CDCDD2"/>
<path d="M53.8408 3.73333C52.6145 3.73333 51.4309 4.04923 50.6181 4.68103L51.3168 5.98769C51.8872 5.51385 52.7713 5.22667 53.6269 5.22667C54.8961 5.22667 55.5235 5.8441 55.5235 6.89231V7.00718H53.5556C51.2455 7.00718 50.3899 8.01231 50.3899 9.29026C50.3899 10.6256 51.4879 11.5877 53.2277 11.5877C54.3685 11.5877 55.1955 11.2144 55.6233 10.5538V11.4872H57.306V6.99282C57.306 4.78154 56.0369 3.73333 53.8408 3.73333ZM53.5984 10.281C52.6858 10.281 52.1439 9.86461 52.1439 9.21846C52.1439 8.65846 52.4719 8.19897 53.684 8.19897H55.5235V9.08923C55.2241 9.87897 54.4683 10.281 53.5984 10.281Z" fill="#CDCDD2"/>
<path d="M61.2906 4.93949V3.81949H59.5937V11.4872H61.3762V7.7682C61.3762 6.20308 62.2318 5.39897 63.5865 5.39897C63.7148 5.39897 63.8431 5.41333 64 5.44205V3.73333C62.7309 3.73333 61.804 4.13538 61.2906 4.93949Z" fill="#CDCDD2"/>
<path d="M0 2C0 1.63181 0.29642 1.33333 0.662073 1.33333H17.876C18.2416 1.33333 18.538 1.63181 18.538 2C18.538 2.36819 18.2416 2.66667 17.876 2.66667H0.662072C0.29642 2.66667 0 2.36819 0 2Z" fill="#CDCDD2"/>
<path d="M0 6C0 5.63181 0.29642 5.33333 0.662073 5.33333H17.876C18.2416 5.33333 18.538 5.63181 18.538 6C18.538 6.36819 18.2416 6.66667 17.876 6.66667H0.662072C0.29642 6.66667 0 6.36819 0 6Z" fill="#CDCDD2"/>
<path d="M0 10C0 9.63181 0.29642 9.33333 0.662073 9.33333H17.876C18.2416 9.33333 18.538 9.63181 18.538 10C18.538 10.3682 18.2416 10.6667 17.876 10.6667H0.662072C0.29642 10.6667 0 10.3682 0 10Z" fill="#CDCDD2"/>
<path d="M15.8897 2C15.8897 3.10457 15.0005 4 13.9035 4C12.8066 4 11.9173 3.10457 11.9173 2C11.9173 0.89543 12.8066 0 13.9035 0C15.0005 0 15.8897 0.89543 15.8897 2Z" fill="#CDCDD2"/>
<path d="M6.62073 6C6.62073 7.10457 5.73147 8 4.63451 8C3.53755 8 2.64829 7.10457 2.64829 6C2.64829 4.89543 3.53755 4 4.63451 4C5.73147 4 6.62073 4.89543 6.62073 6Z" fill="#CDCDD2"/>
<path d="M15.8897 10C15.8897 11.1046 15.0005 12 13.9035 12C12.8066 12 11.9173 11.1046 11.9173 10C11.9173 8.89543 12.8066 8 13.9035 8C15.0005 8 15.8897 8.89543 15.8897 10Z" fill="#CDCDD2"/>
</svg>
