<svg width="22" height="26" viewBox="0 0 22 26" fill="none" xmlns="http://www.w3.org/2000/svg">
    <path d="M17.318 25.8556H4.68285C4.00821 25.8556 3.44792 25.3452 3.38503 24.6741L1.58981 5.46592C1.57838 5.34547 1.6184 5.22502 1.69844 5.13326C1.77848 5.04149 1.89283 4.98987 2.01289 4.98987H19.9765C20.0966 4.98987 20.2109 5.04149 20.291 5.13326C20.371 5.22502 20.411 5.33973 20.3996 5.46592L18.6044 24.6684C18.5472 25.3452 17.9926 25.8556 17.318 25.8556ZM2.48742 5.85593L4.24262 24.5881C4.26549 24.8175 4.45416 24.9896 4.68285 24.9896H17.3123C17.541 24.9896 17.7353 24.8175 17.7525 24.5881L19.5077 5.85593H2.48742Z" fill="#7BE683" />
    <path d="M21.5712 5.85587H0.428794C0.194387 5.85587 0 5.66086 0 5.4257V2.8734C0 2.63824 0.194387 2.44324 0.428794 2.44324H21.5712C21.8056 2.44324 22 2.63824 22 2.8734V5.4257C22 5.66659 21.8113 5.85587 21.5712 5.85587ZM0.857588 4.99554H21.1424V3.30356H0.857588V4.99554Z" fill="#7BE683" />
    <path d="M7.65535 21.2615C7.43237 21.2615 7.24371 21.0837 7.22655 20.8601L6.62624 11.0409C6.62624 11.0294 6.62624 11.0237 6.62624 11.0122C6.62624 10.387 6.11741 9.87656 5.49422 9.87656C5.25982 9.87656 5.06543 9.68155 5.06543 9.4464C5.06543 9.21124 5.25982 9.01624 5.49422 9.01624C6.58622 9.01624 7.4724 9.90524 7.48383 10.995L8.08414 20.8027C8.10129 21.0379 7.91834 21.2443 7.68393 21.2558C7.6725 21.2615 7.66106 21.2615 7.65535 21.2615Z" fill="#7BE683" />
    <path d="M11.2629 21.2615C11.0285 21.2615 10.8341 21.0665 10.8341 20.8314V11.0122C10.8341 9.92245 10.6969 9.87656 10.3653 9.87656C10.1309 9.87656 9.93652 9.68155 9.93652 9.4464C9.93652 9.21124 10.1309 9.01624 10.3653 9.01624C11.6917 9.01624 11.6917 10.2666 11.6917 11.0122V20.8314C11.6917 21.0665 11.4973 21.2615 11.2629 21.2615Z" fill="#7BE683" />
    <path d="M14.5041 21.2615C14.4927 21.2615 14.487 21.2615 14.4755 21.2615C14.2411 21.2443 14.0582 21.0436 14.0753 20.8084L14.6756 11.0007C14.6814 9.90524 15.5733 9.02197 16.6652 9.02197C16.8997 9.02197 17.094 9.21698 17.094 9.45214C17.094 9.68729 16.8997 9.8823 16.6652 9.8823C16.0421 9.8823 15.5332 10.3928 15.5332 11.0179C15.5332 11.0294 15.5332 11.0351 15.5332 11.0466L14.9329 20.8658C14.9215 21.0837 14.7328 21.2615 14.5041 21.2615Z" fill="#7BE683" />
    <path d="M13.0636 3.30365C12.8292 3.30365 12.6348 3.10864 12.6348 2.87349V1.61168C12.6348 1.19872 12.2975 0.860326 11.8859 0.860326H10.1192C9.7076 0.860326 9.37028 1.19872 9.37028 1.61168V2.87349C9.37028 3.10864 9.1759 3.30365 8.94149 3.30365C8.70708 3.30365 8.5127 3.10864 8.5127 2.87349V1.61168C8.5127 0.722674 9.23307 0 10.1192 0H11.8802C12.7663 0 13.4924 0.722674 13.4924 1.61168V2.87349C13.4924 3.11438 13.298 3.30365 13.0636 3.30365Z" fill="#7BE683" />
</svg>
