<svg width="33" height="28" viewBox="0 0 33 28" fill="none" xmlns="http://www.w3.org/2000/svg">
<path d="M23.643 0.00063869C20.8902 -0.0140729 18.2732 1.19492 16.5 3.3006C14.7378 1.18053 12.1136 -0.0319028 9.35691 0.00063869C4.18921 0.00063869 0 4.18985 0 9.35755C0 18.2133 15.4557 26.8601 16.0823 27.1943C16.3351 27.3632 16.6648 27.3632 16.9177 27.1943C17.5443 26.8601 33 18.3386 33 9.35755C33 4.18985 28.8107 0.00063869 23.643 0.00063869ZM16.5 25.5234C14.0772 24.1031 1.67089 16.5424 1.67089 9.35755C1.67089 5.11269 5.11205 1.67145 9.35699 1.67145C11.9565 1.63731 14.3892 2.94848 15.7899 5.13851C16.0743 5.53069 16.6229 5.61808 17.015 5.3336C17.0899 5.27923 17.1558 5.21343 17.2101 5.13851C19.5332 1.58574 24.2966 0.588863 27.8493 2.91194C30.0243 4.33409 31.3334 6.75887 31.329 9.35747C31.3291 16.6259 18.9227 24.1449 16.5 25.5234Z" fill="#CDCDD2"/>
</svg>
