<svg width="26" height="21" viewBox="0 0 26 21" fill="none" xmlns="http://www.w3.org/2000/svg">
<path d="M18.6278 0.000490923C16.4589 -0.010817 14.3971 0.918462 13 2.53697C11.6116 0.9074 9.54403 -0.0245218 7.37211 0.000490923C3.30059 0.000490923 0 3.22049 0 7.19259C0 13.9995 12.1772 20.6457 12.6709 20.9026C12.8701 21.0325 13.1299 21.0325 13.3291 20.9026C13.8228 20.6457 26 14.0958 26 7.19259C26 3.22049 22.6993 0.000490923 18.6278 0.000490923ZM13 19.6183C11.0911 18.5266 1.31646 12.7152 1.31646 7.19259C1.31646 3.92982 4.02767 1.28474 7.37217 1.28474C9.42025 1.2585 11.3369 2.26632 12.4405 3.94967C12.6646 4.25111 13.0968 4.31828 13.4058 4.09962C13.4648 4.05783 13.5167 4.00725 13.5595 3.94967C15.3898 1.21886 19.1427 0.452624 21.9419 2.23823C23.6555 3.33136 24.6869 5.19514 24.6835 7.19253C24.6835 12.7793 14.9088 18.5587 13 19.6183Z" fill="#1A2531"/>
</svg>
