<svg width="35" height="35" viewBox="0 0 35 35" fill="none" xmlns="http://www.w3.org/2000/svg">
<path fill-rule="evenodd" clip-rule="evenodd" d="M29.2272 17.4773C28.6195 17.4773 28.265 17.8831 28.265 18.4917V32.7941H21.175V27.0123C21.175 26.5051 20.7699 25.9979 20.2634 25.9979H15.1991C14.5914 25.9979 14.1356 26.5051 14.1356 27.0123V32.7941H7.14692V18.9989C7.14692 18.3395 6.64049 17.9845 6.1847 17.9845C5.57699 17.9845 5.22249 18.3903 5.22249 18.9989V33.9606C5.22249 34.4678 5.62763 34.9749 6.1847 34.9749H15.1991C15.7056 34.9749 16.0601 34.4678 16.0601 33.9606V28.0266H19.1999V33.9606C19.1999 34.4678 19.7064 34.9749 20.2634 34.9749H29.1766C29.683 34.9749 30.1388 34.4678 30.1388 33.9606V18.4917C30.1895 17.8831 29.683 17.4773 29.2272 17.4773ZM34.5954 18.2381C28.1131 11.2898 24.1123 7.02952 18.339 0.99412C18.1364 0.689814 17.9339 0.588379 17.7313 0.588379C17.4274 0.588379 17.1236 0.689814 16.9716 0.99412L0.816553 18.1367C0.613981 18.3903 0.512695 18.6439 0.512695 18.8974C0.512695 19.151 0.613981 19.4046 0.816553 19.5568C1.2217 20.0639 1.77877 20.0639 2.18391 19.5568L17.7313 3.17498L33.228 19.8104C33.3293 19.9625 33.6332 20.0639 33.937 20.0639C34.2409 20.0639 34.4435 19.9625 34.5954 19.8104C35.0005 19.4046 35.0005 18.6439 34.5954 18.2381Z" fill="#E5E5E5"/>
</svg>
