<svg width="29" height="29" viewBox="0 0 29 29" fill="none" xmlns="http://www.w3.org/2000/svg">
<path fill-rule="evenodd" clip-rule="evenodd" d="M24.2165 14.2434C23.704 14.2434 23.405 14.5855 23.405 15.0988V27.1608H17.4256V22.2847C17.4256 21.8569 17.0839 21.4292 16.6568 21.4292H12.3859C11.8733 21.4292 11.489 21.8569 11.489 22.2847V27.1608H5.59499V15.5265C5.59499 14.9705 5.16789 14.6711 4.7835 14.6711C4.27099 14.6711 3.97202 15.0133 3.97202 15.5265V28.1445C3.97202 28.5723 4.3137 29 4.7835 29H12.3859C12.813 29 13.1119 28.5723 13.1119 28.1445V23.1401H15.7599V28.1445C15.7599 28.5723 16.187 29 16.6568 29H24.1738C24.6009 29 24.9853 28.5723 24.9853 28.1445V15.0988C25.028 14.5855 24.6009 14.2434 24.2165 14.2434ZM28.7437 14.885C23.2769 9.02507 19.9028 5.43215 15.0339 0.342183C14.863 0.0855457 14.6922 0 14.5214 0C14.2651 0 14.0088 0.0855457 13.8807 0.342183L0.256259 14.7994C0.0854197 15.0133 0 15.2271 0 15.441C0 15.6549 0.0854197 15.8687 0.256259 15.9971C0.597938 16.4248 1.06775 16.4248 1.40943 15.9971L14.5214 2.18142L27.5906 16.2109C27.676 16.3392 27.9323 16.4248 28.1885 16.4248C28.4448 16.4248 28.6156 16.3392 28.7437 16.2109C29.0854 15.8687 29.0854 15.2271 28.7437 14.885Z" fill="#1A2531"/>
</svg>
