<svg width="17" height="17" viewBox="0 0 17 17" fill="none" xmlns="http://www.w3.org/2000/svg">
    <path fill-rule="evenodd" clip-rule="evenodd" d="M5.08592 0.655487H11.1883C13.9972 0.655487 16.2742 2.93273 16.2742 5.74097V11.8439C16.2742 14.653 13.9972 16.9298 11.1883 16.9298H5.08592C2.27698 16.9298 -0.000976562 14.653 -0.000976562 11.8439V5.74097C-0.000976562 2.93273 2.27698 0.655487 5.08592 0.655487ZM11.1883 15.4047C13.1513 15.4047 14.7491 13.8068 14.7491 11.8439V5.74097C14.7491 3.77766 13.1513 2.18102 11.1883 2.18102H5.08592C3.12188 2.18102 1.52508 3.77766 1.52508 5.74097V11.8439C1.52508 13.8068 3.12188 15.4047 5.08592 15.4047H11.1883ZM4.06854 8.79245C4.06854 6.54543 5.89012 4.72356 8.13708 4.72356C10.384 4.72356 12.2056 6.54543 12.2056 8.79245C12.2056 11.0394 10.384 12.8613 8.13708 12.8613C5.89012 12.8613 4.06854 11.0394 4.06854 8.79245ZM5.59364 8.79245C5.59364 10.1945 6.73504 11.3354 8.13708 11.3354C9.53816 11.3354 10.6796 10.1945 10.6796 8.79245C10.6796 7.38994 9.53816 6.24909 8.13708 6.24909C6.73504 6.24909 5.59364 7.38994 5.59364 8.79245ZM13.0525 4.41861C13.0525 4.1194 12.8102 3.87658 12.5108 3.87658C12.2114 3.87658 11.9682 4.1194 11.9682 4.41861C11.9682 4.71742 12.2114 4.96064 12.5108 4.96064C12.8102 4.96064 13.0525 4.71742 13.0525 4.41861Z" fill="#757575" />
</svg>
