<svg width="12" height="16" viewBox="0 0 12 16" fill="none" xmlns="http://www.w3.org/2000/svg">
<rect y="6.57141" width="11.4286" height="9.42858" fill="#7AE582"/>
<path fill-rule="evenodd" clip-rule="evenodd" d="M7.99958 7.57143V3.85715C7.99958 2.51588 6.91228 1.42857 5.57101 1.42857C4.22975 1.42857 3.14244 2.51588 3.14244 3.85714V7.57143C3.14244 8.9127 4.22975 10 5.57101 10C6.91228 10 7.99958 8.9127 7.99958 7.57143ZM5.57101 0C3.44077 0 1.71387 1.7269 1.71387 3.85714V7.57143C1.71387 9.70168 3.44077 11.4286 5.57101 11.4286C7.70125 11.4286 9.42816 9.70168 9.42816 7.57143V3.85715C9.42816 1.7269 7.70125 0 5.57101 0Z" fill="#7AE582"/>
</svg>
