<svg width="30" height="30" viewBox="0 0 30 30" fill="none" xmlns="http://www.w3.org/2000/svg">
<path d="M21.0685 20.6164C20.9769 20.6164 20.8395 20.5702 20.7479 20.524L14.3814 15.393C14.244 15.3006 14.1982 15.1619 14.1982 14.977C14.1982 14.8383 14.2898 14.6534 14.3814 14.561L20.7479 9.42999C20.8853 9.29132 21.1143 9.29132 21.2975 9.38377C21.4807 9.47622 21.5723 9.66112 21.5723 9.84602V11.6026H27.9387C28.2135 11.6026 28.4425 11.8337 28.4425 12.111C28.4425 12.3884 28.2135 12.6195 27.9387 12.6195H21.0685C20.7937 12.6195 20.5647 12.3884 20.5647 12.111V10.9092L15.4807 14.977L20.5647 19.0448V17.8429C20.5647 17.5656 20.7937 17.3345 21.0685 17.3345H27.9387C28.2135 17.3345 28.4425 17.5656 28.4425 17.8429C28.4425 18.1203 28.2135 18.3514 27.9387 18.3514H21.5723V20.108C21.5723 20.2929 21.4807 20.4778 21.2975 20.5702C21.2059 20.6164 21.1143 20.6164 21.0685 20.6164Z" fill="black"/>
<path d="M29.4958 15.5316H23.4042C23.1294 15.5316 22.9004 15.3005 22.9004 15.0231C22.9004 14.7458 23.1294 14.5146 23.4042 14.5146H29.4958C29.7706 14.5146 29.9996 14.7458 29.9996 15.0231C29.9996 15.3005 29.7706 15.5316 29.4958 15.5316Z" fill="black"/>
<path d="M17.8626 30H0.503817C0.229008 30 0 29.7689 0 29.4915V0.508475C0 0.231125 0.229008 0 0.503817 0H17.8626C18.1374 0 18.3664 0.231125 18.3664 0.508475V8.27427C18.3664 8.55162 18.1374 8.78274 17.8626 8.78274C17.5878 8.78274 17.3588 8.55162 17.3588 8.27427V1.01695H1.00763V28.9831H17.3588V21.772C17.3588 21.4946 17.5878 21.2635 17.8626 21.2635C18.1374 21.2635 18.3664 21.4946 18.3664 21.772V29.5378C18.3664 29.7689 18.1374 30 17.8626 30Z" fill="black"/>
<path d="M3.84757 25.1464C3.57276 25.1464 3.34375 24.9153 3.34375 24.638V5.40838C3.34375 5.13103 3.57276 4.8999 3.84757 4.8999C4.12238 4.8999 4.35138 5.13103 4.35138 5.40838V24.638C4.35138 24.9153 4.12238 25.1464 3.84757 25.1464Z" fill="black"/>
</svg>
