<svg width="90" height="59" viewBox="0 0 110 69" fill="none" xmlns="http://www.w3.org/2000/svg">
    <path d="M16.0714 52.0403V57.5672H22.7364C21.7661 61.4483 18.8553 62.7979 15.7344 62.7979C10.6714 62.7979 6.87499 59.2115 6.87499 53.5169C6.87499 47.8222 10.7937 44.4474 15.7344 44.4474C18.8553 44.4474 21.3868 45.67 23.1173 48.2015L27.9263 44.869C24.8462 39.6383 19.8256 38.1194 15.6498 38.1194C7.21359 38.1194 0 44.1511 0 53.5169C0 62.8826 7.12893 68.9143 15.4805 68.9143C23.8321 68.9143 30.7525 62.671 29.1913 52.0403H16.0714Z" fill="white" />
    <path d="M43.0289 46.1339C37.375 46.1339 31.8496 50.142 31.8496 57.5671C31.8496 64.7776 37.3358 68.9142 43.4083 68.9142C47.4163 68.9142 50.5372 67.2699 52.3429 64.9955L49.3898 61.9169C47.7878 63.1396 46.0573 63.6035 44.1168 63.6035C41.2059 63.6035 39.013 62.4232 38.1274 60.0595H53.7349C55.1409 50.015 48.5966 46.1339 43.0289 46.1339ZM38.013 55.3727C38.7309 52.7581 40.9238 51.6185 43.1167 51.6185C45.3096 51.6185 47.5464 52.8412 48.0104 55.3727H38.013Z" fill="white" />
    <path d="M63.528 52.6251V46.5636H56.8662V68.9144H63.528V59.7164C63.528 55.5045 66.0642 52.5388 70.4908 52.5388C71.0098 52.537 71.5279 52.58 72.0395 52.6673V46.3488C71.5232 46.1966 70.9867 46.1242 70.4485 46.1341C66.4075 46.1341 64.2585 49.0136 63.528 52.6251Z" fill="white" />
    <path d="M107.108 62.386V37.9598H100.57V68.9146H103.066V68.924H110V62.386H107.108Z" fill="white" />
    <path d="M90.0629 46.1327V49.042H89.9375C89.6021 48.241 87.323 46.1327 83.4434 46.1327C78.4635 46.1327 72.9805 49.8868 72.9805 57.5221C72.9805 65.1573 78.4667 68.9114 83.4434 68.9114C87.323 68.9114 89.6021 66.8016 89.9375 66.0006H90.0629V68.9177H96.6009V46.1327H90.0629ZM90.0629 59.0504C89.4359 61.6681 87.2242 63.0929 84.7915 63.0929C82.0076 63.0929 79.4354 61.0693 79.4354 57.5252C79.4354 53.9811 82.0076 51.9559 84.7915 51.9559C87.2242 51.9559 89.4422 53.3823 90.0629 56C90.2906 57.004 90.2906 58.0463 90.0629 59.0504Z" fill="white" />
    <path d="M72.9718 44.623C72.9709 44.4612 73.0179 44.3027 73.1071 44.1676C73.1962 44.0326 73.3234 43.9269 73.4725 43.8642C73.6217 43.8014 73.7861 43.7842 73.945 43.8149C74.1039 43.8455 74.2502 43.9226 74.3652 44.0364C74.4803 44.1502 74.5591 44.2955 74.5916 44.454C74.624 44.6126 74.6088 44.7772 74.5477 44.9271C74.4867 45.0769 74.3825 45.2053 74.2485 45.296C74.1144 45.3867 73.9565 45.4356 73.7947 45.4365C73.6866 45.4395 73.5791 45.4205 73.4785 45.3808C73.3779 45.3411 73.2864 45.2814 73.2095 45.2054C73.1327 45.1294 73.0719 45.0387 73.0311 44.9385C72.9902 44.8384 72.97 44.7311 72.9718 44.623Z" fill="white" />
    <path d="M75.2373 42.0494C75.2373 39.9881 76.8048 38.6589 78.6654 38.6589C79.6059 38.6589 80.6906 38.9928 81.3678 40.1449L80.3097 40.8785C80.1327 40.617 79.8928 40.4043 79.612 40.2599C79.3312 40.1156 79.0186 40.0442 78.703 40.0524C77.6246 40.0524 76.7515 40.8142 76.7515 42.0494C76.7515 43.2846 77.6434 44.0464 78.7124 44.0464C79.0271 44.057 79.3393 43.9866 79.619 43.8419C79.8986 43.6973 80.1365 43.4833 80.3097 43.2203L81.3678 43.9539C80.6906 45.106 79.5949 45.4399 78.656 45.4399C76.7985 45.4367 75.2373 44.1122 75.2373 42.0494Z" fill="white" />
    <path d="M81.7773 42.0494C81.7773 40.0336 83.3292 38.6589 85.196 38.6589C87.0629 38.6589 88.6147 40.0336 88.6147 42.0494C88.6147 44.0652 87.0472 45.4399 85.196 45.4399C83.3448 45.4399 81.7773 44.0652 81.7773 42.0494ZM87.1068 42.0494C87.1068 40.833 86.2431 40.0524 85.2023 40.0524C84.1615 40.0524 83.2978 40.8362 83.2978 42.0494C83.2978 43.2626 84.1615 44.0464 85.2023 44.0464C86.2431 44.0464 87.1005 43.2658 87.1005 42.0494H87.1068Z" fill="white" />
    <path d="M89.3955 38.7512H91.0116L92.9992 43.4803L94.9867 38.7512H96.6028V45.3471H95.1356V41.5664H95.0886L93.5368 45.3471H92.46L90.9081 41.5664H90.8627V45.3471H89.3955V38.7512Z" fill="white" />
    <path d="M89.4939 16.0886C83.3902 12.963 77.2409 11.013 70.7766 9.28411C67.7984 8.48625 54.6315 6.09897 43.54 6.30588C43.3832 6.30588 43.2265 6.30585 43.0572 6.31526C33.2431 6.56919 25.2051 8.92514 27.5594 16.3284C28.0768 17.8527 28.8398 19.2823 29.8182 20.5606C29.5831 20.523 29.3479 20.4775 29.1222 20.4258C25.5358 19.6154 22.5544 16.2923 22.5544 16.2923C21.8538 15.5086 20.7299 14.2405 19.9979 12.2451C19.7063 11.4504 19.3176 10.3547 19.4038 8.88439C19.4641 7.89859 19.7215 6.9349 20.1609 6.05036C20.4477 5.47509 21.1014 4.26499 22.7629 3.10976C25.9073 0.935652 29.4749 0.592394 32.5362 0.271059C34.7191 0.0715059 36.9106 -0.0179864 39.1024 0.00298686C39.1024 0.00298686 39.4692 0.00300064 39.8423 0.017108C58.1693 0.542216 74.5746 7.76518 74.5746 7.76518C79.7962 10.0687 84.791 12.8553 89.4939 16.0886Z" fill="white" />
    <path d="M90.6067 22.5715C85.6173 20.3034 80.6343 18.9773 75.402 17.8377C72.9897 17.3142 62.3919 15.9003 53.5419 16.4818L53.1578 16.5069C45.3314 17.0775 39.0003 19.2594 41.1572 25.0826C41.6281 26.2792 42.291 27.391 43.1197 28.3743C42.93 28.354 42.7435 28.3257 42.5585 28.2928C39.6649 27.7803 37.1601 25.2394 37.1601 25.2394C36.2266 24.3514 35.4804 23.2854 34.9656 22.1044C34.5721 21.2711 34.3671 20.3612 34.3652 19.4397C34.3761 18.6501 34.5457 17.8708 34.8637 17.148C35.0706 16.6778 35.5408 15.6871 36.8309 14.7027C39.2605 12.8484 42.0961 12.4408 44.5288 12.0693C46.866 11.7135 49.5808 11.6179 49.7611 11.6101C49.7611 11.6101 50.0558 11.5991 50.3536 11.5944C65.008 11.328 78.3771 16.4818 78.3771 16.4818C82.635 18.1251 86.7294 20.1639 90.6067 22.5715Z" fill="white" />
    <path d="M90.6011 28.2193C86.6824 26.6675 82.806 25.8383 78.7494 25.1627C76.8778 24.8492 68.6876 24.1674 61.9145 24.9496L61.6199 24.984C55.6321 25.7176 50.8544 27.6331 52.7306 32.0236C53.1358 32.9254 53.6854 33.755 54.3577 34.4799C54.2119 34.4705 54.0677 34.4564 53.9235 34.4391C51.682 34.1538 49.6631 32.2979 49.6631 32.2979C48.9121 31.6521 48.299 30.8615 47.8605 29.9734C47.5276 29.3491 47.3355 28.6594 47.2977 27.9529C47.2764 27.346 47.3771 26.741 47.594 26.1738C47.8827 25.4096 48.3696 24.736 49.0047 24.2222C50.7995 22.7065 52.9611 22.2864 54.8154 21.9086C56.1387 21.6579 57.4738 21.4738 58.8156 21.3569C58.8156 21.3569 59.0398 21.3381 59.2686 21.3224C70.5106 20.5621 80.9721 24.0122 80.9721 24.0122C84.3059 25.1112 87.5297 26.5197 90.6011 28.2193Z" fill="white" />
</svg>
