<svg width="22" height="26" viewBox="0 0 22 26" fill="none" xmlns="http://www.w3.org/2000/svg">
<path d="M21.4064 24.7355H21.2244C21.1638 24.7355 21.0728 24.7055 21.0425 24.6156L20.1631 22.907L19.2837 24.6456C19.2533 24.7055 19.1927 24.7654 19.1017 24.7654H19.0107C18.9501 24.7654 18.8591 24.7355 18.8288 24.6456L17.9797 22.9969L17.1306 24.6456C17.1003 24.7055 17.0396 24.7654 16.9487 24.7654H16.888C16.8274 24.7654 16.7364 24.7355 16.7061 24.6456L15.7963 22.8471L14.8866 24.6456C14.8563 24.7055 14.7956 24.7654 14.7046 24.7654H14.5833C14.5227 24.7654 14.4317 24.7355 14.4014 24.6456L13.4916 22.8471L12.5819 24.6456C12.5516 24.7055 12.4909 24.7654 12.4 24.7654H12.127C12.0664 24.7654 11.9754 24.7355 11.9451 24.6456L11.0353 22.8471L10.1256 24.6456C10.0953 24.7055 10.0346 24.7654 9.94366 24.7654C9.88301 24.7654 9.79204 24.7355 9.76171 24.6456L8.85197 22.8471L7.94223 24.6456C7.91191 24.7055 7.85126 24.7654 7.76029 24.7654H7.69964C7.63899 24.7654 7.54801 24.7355 7.51769 24.6456L6.60795 22.8471L5.69821 24.6456C5.66789 24.7055 5.60724 24.7654 5.51626 24.7654H5.45561C5.39496 24.7654 5.30399 24.7355 5.27366 24.6456L4.36393 22.8471L3.45419 24.6456C3.42386 24.7055 3.36321 24.7654 3.27224 24.7654H3.09029C3.02964 24.7654 2.93867 24.7355 2.90834 24.6456L1.9986 22.8471L1.08886 24.6456C1.05854 24.7055 0.99789 24.7654 0.906916 24.7654H0.694643C0.573345 24.7654 0.512695 24.6755 0.512695 24.5856V3.00373C0.512695 1.92464 1.30114 1.02539 2.30185 1.02539H20.1327C20.9515 1.02539 21.5883 1.74479 21.5883 2.64403V24.5257C21.5883 24.6456 21.4974 24.7355 21.4064 24.7355ZM12.218 24.3458H12.2483L13.2794 22.3075C13.3097 22.2476 13.3703 22.1876 13.4613 22.1876C13.522 22.1876 13.6129 22.2176 13.6433 22.3075L14.644 24.2259L15.6144 22.3075C15.6447 22.2476 15.7053 22.1876 15.7963 22.1876C15.857 22.1876 15.9479 22.2176 15.9783 22.3075L16.9487 24.166L17.8281 22.4574C17.8584 22.3974 17.919 22.3375 18.01 22.3375C18.0707 22.3375 18.1616 22.3675 18.192 22.4574L19.0714 24.1959L20.0114 22.3675C20.0418 22.3075 20.1024 22.2476 20.1934 22.2476C20.254 22.2476 20.345 22.2775 20.3753 22.3675L21.2548 24.0461V2.64403C21.2548 1.95461 20.7696 1.41506 20.1934 1.41506H2.30185C1.54373 1.41506 0.906916 2.13446 0.906916 3.00373V24.106L1.81666 22.3075C1.84698 22.2476 1.90763 22.1876 1.9986 22.1876C2.05925 22.1876 2.15023 22.2176 2.18055 22.3075L3.15094 24.2259L4.15165 22.3075C4.18198 22.2476 4.24263 22.1876 4.3336 22.1876C4.39425 22.1876 4.48522 22.2176 4.51555 22.3075L5.45561 24.166L6.39568 22.3075C6.45633 22.1876 6.6686 22.1876 6.75957 22.3075L7.69964 24.166L8.6397 22.3075C8.67002 22.2476 8.73067 22.1876 8.82165 22.1876C8.8823 22.1876 8.97327 22.2176 9.0036 22.3075L9.91334 24.106L10.8231 22.3075C10.8837 22.1876 11.096 22.1876 11.187 22.3075L12.218 24.3458Z" fill="#7AE582" stroke="#7AE582" stroke-width="0.5"/>
<path d="M16.7354 13.525C14.7947 13.525 13.2178 11.9663 13.2178 10.0479C13.2178 8.12949 14.7947 6.5708 16.7354 6.5708C18.6762 6.5708 20.2531 8.12949 20.2531 10.0479C20.2228 11.9663 18.6459 13.525 16.7354 13.525ZM16.7354 6.96047C15.0069 6.96047 13.612 8.33932 13.612 10.0479C13.612 11.7564 15.0069 13.1353 16.7354 13.1353C18.4639 13.1353 19.8589 11.7564 19.8589 10.0479C19.8285 8.36929 18.4336 6.96047 16.7354 6.96047Z" fill="#7AE582" stroke="#7AE582" stroke-width="0.5"/>
<path d="M16.9185 11.3069C17.0398 11.2769 17.1611 11.2169 17.2218 11.127C17.3127 11.0371 17.3431 10.9172 17.3431 10.7973C17.3431 10.6774 17.3127 10.5875 17.2521 10.4975C17.1914 10.4076 17.0702 10.3477 16.9185 10.3177V11.3069ZM16.5243 8.57915C16.4333 8.60912 16.3424 8.66907 16.2817 8.759C16.2211 8.84892 16.1907 8.93885 16.1907 9.02877C16.1907 9.1187 16.2211 9.20862 16.2817 9.26857C16.3424 9.32852 16.4333 9.41844 16.5243 9.44842V8.57915ZM16.5243 11.2469V10.1678C16.1907 10.0779 15.9481 9.92802 15.7965 9.74817C15.6449 9.56832 15.5539 9.32852 15.5539 9.05875C15.5539 8.78897 15.6449 8.54917 15.8268 8.36933C16.0088 8.18948 16.2514 8.06958 16.5243 8.0396V7.7998H16.8882V8.0396C17.1611 8.06958 17.3734 8.1595 17.5553 8.30938C17.707 8.45925 17.8283 8.66907 17.8586 8.90887L17.1914 8.9988C17.1611 8.78897 17.0398 8.66907 16.8882 8.57915V9.56832C17.3127 9.68822 17.5857 9.80812 17.7373 9.98797C17.8889 10.1678 17.9496 10.3776 17.9496 10.6774C17.9496 10.9771 17.8586 11.2469 17.6766 11.4567C17.4947 11.6666 17.2218 11.7865 16.8882 11.8464V12.326H16.5243V11.8464C16.2211 11.8164 15.9785 11.6965 15.7965 11.5167C15.6146 11.3368 15.4933 11.0671 15.4326 10.7373L16.0998 10.6474C16.1301 10.7973 16.1907 10.8872 16.2514 11.0071C16.3727 11.127 16.4333 11.2169 16.5243 11.2469Z" fill="#7AE582"/>
<path d="M10.4892 7.65023H2.63507C2.51377 7.65023 2.45312 7.5603 2.45312 7.47038C2.45312 7.38045 2.5441 7.29053 2.63507 7.29053H10.4892C10.6105 7.29053 10.6711 7.38045 10.6711 7.47038C10.6711 7.5603 10.6105 7.65023 10.4892 7.65023Z" fill="#7AE582" stroke="#7AE582" stroke-width="0.5"/>
<path d="M10.4892 10.3778H2.63507C2.51377 10.3778 2.45312 10.2878 2.45312 10.1979C2.45312 10.108 2.5441 10.0181 2.63507 10.0181H10.4892C10.6105 10.0181 10.6711 10.108 10.6711 10.1979C10.6711 10.2878 10.6105 10.3778 10.4892 10.3778Z" fill="#7AE582" stroke="#7AE582" stroke-width="0.5"/>
<path d="M10.4892 13.0753H2.63507C2.51377 13.0753 2.45312 12.9853 2.45312 12.8954C2.45312 12.8055 2.5441 12.7156 2.63507 12.7156H10.4892C10.6105 12.7156 10.6711 12.8055 10.6711 12.8954C10.6711 12.9853 10.6105 13.0753 10.4892 13.0753Z" fill="#7AE582" stroke="#7AE582" stroke-width="0.5"/>
<path d="M10.4892 15.803H2.63507C2.51377 15.803 2.45312 15.7131 2.45312 15.6232C2.45312 15.5033 2.51377 15.4133 2.63507 15.4133H10.4892C10.6105 15.4133 10.6711 15.5033 10.6711 15.5932C10.7014 15.7131 10.6105 15.803 10.4892 15.803Z" fill="#7AE582" stroke="#7AE582" stroke-width="0.5"/>
<path d="M10.4892 18.501H2.63507C2.51377 18.501 2.45312 18.4111 2.45312 18.3212C2.45312 18.2013 2.51377 18.1113 2.63507 18.1113H10.4892C10.6105 18.1113 10.6711 18.2013 10.6711 18.2912C10.7014 18.4111 10.6105 18.501 10.4892 18.501Z" fill="#7AE582" stroke="#7AE582" stroke-width="0.5"/>
</svg>
