<svg width="14" height="19" viewBox="0 0 14 19" fill="none" xmlns="http://www.w3.org/2000/svg">
    <path fill-rule="evenodd" clip-rule="evenodd" d="M12.1842 2.56051C10.9585 1.4045 9.2609 0.767234 7.40635 0.767234C4.5732 0.767234 2.83009 1.90852 1.86697 2.86585C0.680016 4.04557 -0.000170946 5.61156 -0.000170946 7.16283C-0.000170946 9.11144 0.829242 10.6063 2.21772 11.163C2.31171 11.2002 2.40472 11.219 2.49677 11.219C2.79036 11.219 3.02194 11.0306 3.10236 10.7293C3.14983 10.5556 3.25836 10.1272 3.30584 9.94205C3.4066 9.57497 3.32522 9.3992 3.1043 9.14413C2.70315 8.6769 2.51518 8.12467 2.51518 7.40605C2.51518 5.27104 4.13329 3.00279 7.13214 3.00279C9.51089 3.00279 10.9885 4.33129 10.9885 6.46997C10.9885 7.81931 10.693 9.06891 10.1552 9.98905C9.78217 10.6284 9.12524 11.3899 8.11755 11.3899C7.68153 11.3899 7.29009 11.2145 7.04301 10.9076C6.8095 10.6177 6.73295 10.2433 6.82693 9.85295C6.93255 9.41146 7.07691 8.95201 7.21742 8.50727C7.47225 7.69505 7.71351 6.92737 7.71351 6.31545C7.71351 5.26818 7.05852 4.5651 6.08375 4.5651C4.84451 4.5651 3.87362 5.80081 3.87362 7.37988C3.87362 8.15409 4.08292 8.73209 4.17787 8.95488C4.02188 9.60441 3.09364 13.4677 2.91825 14.1961C2.81652 14.6212 2.20318 17.9801 3.21766 18.2478C4.35809 18.5499 5.37644 15.2777 5.48012 14.9086C5.56442 14.6077 5.858 13.4705 6.03823 12.7719C6.58857 13.2927 7.47515 13.6451 8.33653 13.6451C9.96241 13.6451 11.4236 12.9265 12.4526 11.6221C13.4506 10.3565 13.9999 8.5927 13.9999 6.65595C13.9999 5.14147 13.3382 3.64906 12.1842 2.56051Z" fill="#757575" />
</svg>
