<svg width="24" height="24" viewBox="0 0 24 24" fill="none" xmlns="http://www.w3.org/2000/svg">
<path d="M22.8615 21.6828L17.339 16.1602C18.7079 14.4913 19.533 12.3535 19.533 10.0236C19.533 4.67922 15.1966 0.342773 9.8522 0.342773C4.50314 0.342773 0.171387 4.67922 0.171387 10.0236C0.171387 15.368 4.50314 19.7044 9.8522 19.7044C12.1822 19.7044 14.3152 18.884 15.9842 17.5151L21.5067 23.0329C21.8817 23.408 22.4865 23.408 22.8615 23.0329C23.2366 22.6626 23.2366 22.0531 22.8615 21.6828ZM9.8522 17.7776C5.57202 17.7776 2.09349 14.2991 2.09349 10.0236C2.09349 5.74809 5.57202 2.26487 9.8522 2.26487C14.1277 2.26487 17.6109 5.74809 17.6109 10.0236C17.6109 14.2991 14.1277 17.7776 9.8522 17.7776Z" fill="#CDCDD2"/>
</svg>
