<svg width="23" height="23" viewBox="0 0 41 41" fill="none" xmlns="http://www.w3.org/2000/svg">
    <path d="M31.0452 5.81593C31.4873 5.81593 31.8458 5.45739 31.8458 5.01526C31.8458 4.57314 31.4873 4.2146 31.0452 4.2146H31.0406C30.5985 4.2146 30.2422 4.57314 30.2422 5.01526C30.2422 5.45739 30.603 5.81593 31.0452 5.81593Z" fill="#FBFBFB" />
    <path d="M35.3665 5.81593C35.8086 5.81593 36.1671 5.45739 36.1671 5.01526C36.1671 4.57314 35.8086 4.2146 35.3665 4.2146H35.3619C34.9198 4.2146 34.5635 4.57314 34.5635 5.01526C34.5635 5.45739 34.9243 5.81593 35.3665 5.81593Z" fill="#FBFBFB" />
    <path d="M26.7239 5.81593C27.166 5.81593 27.5245 5.45739 27.5245 5.01526C27.5245 4.57314 27.166 4.2146 26.7239 4.2146H26.7193C26.2772 4.2146 25.9209 4.57314 25.9209 5.01526C25.9209 5.45739 26.2817 5.81593 26.7239 5.81593Z" fill="#FBFBFB" />
    <path d="M5.62586 5.81593H17.6568C18.099 5.81593 18.4575 5.45739 18.4575 5.01526C18.4575 4.57314 18.099 4.2146 17.6568 4.2146H5.62586C5.18365 4.2146 4.8252 4.57314 4.8252 5.01526C4.8252 5.45739 5.18365 5.81593 5.62586 5.81593Z" fill="#FBFBFB" />
    <path d="M38.4254 0H2.56869C1.15232 0 0 1.15224 0 2.56861V32.2158C0 33.6321 1.15232 34.7844 2.56869 34.7844H8.97672C9.4877 35.558 10.0808 36.2848 10.7516 36.9557C13.3551 39.5591 16.816 40.9929 20.497 40.9929C24.178 40.9929 27.639 39.5591 30.2424 36.9557C30.9174 36.2806 31.5075 35.5524 32.0129 34.7844H38.4254C39.8417 34.7844 40.994 33.6321 40.994 32.2158V2.56861C40.994 1.15224 39.8417 0 38.4254 0ZM2.56869 1.60133H38.4254C38.9587 1.60133 39.3927 2.03529 39.3927 2.56861V8.43139H1.60133V2.56861C1.60133 2.03529 2.03529 1.60133 2.56869 1.60133ZM38.4254 33.1831H32.9174C35.3769 28.0559 34.4859 21.7108 30.2424 17.4672C28.085 15.3098 25.35 13.9562 22.3331 13.5528C19.4132 13.1626 16.393 13.7287 13.8285 15.1471C13.4415 15.3612 13.3013 15.8483 13.5154 16.2353C13.7294 16.6223 14.2167 16.7624 14.6035 16.5484C19.3254 13.9366 25.2906 14.7801 29.11 18.5995C33.8587 23.3482 33.8587 31.0748 29.11 35.8233C26.8091 38.1242 23.7502 39.3914 20.497 39.3914C17.2437 39.3914 14.1849 38.1242 11.8839 35.8233C8.06508 32.0045 7.22167 26.0401 9.83279 21.3191C10.0468 20.9321 9.90661 20.445 9.51965 20.2309C9.13285 20.0169 8.64557 20.1571 8.43155 20.5441C7.01309 23.1085 6.44694 26.1285 6.83727 29.0475C7.03191 30.5027 7.44833 31.8921 8.06893 33.183H2.56869C2.03529 33.183 1.60133 32.7491 1.60133 32.2157V10.0326H39.3927V32.2157C39.3927 32.7491 38.9587 33.1831 38.4254 33.1831Z" fill="#FBFBFB" />
    <path d="M20.496 31.825C20.9382 31.825 21.2966 31.4665 21.2966 31.0244V29.1134C21.2966 28.6713 20.9381 28.3127 20.496 28.3127C20.0538 28.3127 19.6953 28.6713 19.6953 29.1134V31.0244C19.6953 31.4666 20.0538 31.825 20.496 31.825Z" fill="#FBFBFB" />
    <path d="M20.4961 36.3889C24.2789 36.3889 27.3564 33.3113 27.3564 29.5285V26.4668C27.3564 25.4309 26.6115 24.5662 25.6294 24.3789V22.2795C25.6294 19.9159 23.7063 17.9929 21.3426 17.9929H19.6495C17.2859 17.9929 15.3629 19.9159 15.3629 22.2795V24.3792C14.3805 24.5672 13.6357 25.4316 13.6357 26.4668V29.5285C13.6357 33.3114 16.7133 36.3889 20.4961 36.3889ZM16.9642 22.2795C16.9642 20.7989 18.1688 19.5942 19.6495 19.5942H21.3426C22.8234 19.5942 24.028 20.7989 24.028 22.2795V24.3408H16.9642V22.2795ZM15.237 26.4668C15.237 26.1824 15.4784 25.9421 15.7641 25.9421H25.2303C25.5148 25.9421 25.7551 26.1824 25.7551 26.4668V29.5285C25.7551 32.4283 23.3959 34.7876 20.4961 34.7876C17.5962 34.7876 15.237 32.4283 15.237 29.5285V26.4668Z" fill="#FBFBFB" />
    <path d="M10.7521 17.4674C10.4394 17.7801 10.4394 18.287 10.7521 18.5998C10.9084 18.7561 11.1133 18.8343 11.3182 18.8343C11.5231 18.8343 11.7281 18.7561 11.8844 18.5998L11.8866 18.5975C12.1993 18.2849 12.1982 17.779 11.8855 17.4664C11.5728 17.1537 11.0648 17.1547 10.7521 17.4674Z" fill="#FBFBFB" />
</svg>
