<svg width="19" height="19" viewBox="0 0 19 19" fill="none" xmlns="http://www.w3.org/2000/svg">
    <path fill-rule="evenodd" clip-rule="evenodd" d="M18.628 13.7181C16.0874 13.3171 14.9431 10.8191 14.8966 10.7132C14.8927 10.7067 14.8908 10.6989 14.886 10.6928C14.7561 10.4394 14.7251 10.2309 14.7968 10.0727C14.9354 9.76 15.4673 9.59811 15.819 9.49061C15.9208 9.46037 16.0177 9.43093 16.0971 9.40027C16.444 9.27028 16.6911 9.12723 16.8548 8.96658C17.0496 8.77405 17.0874 8.58969 17.0854 8.46911C17.0796 8.17725 16.8461 7.91809 16.475 7.79136C16.35 7.74232 16.2066 7.71655 16.0613 7.71655C15.9624 7.71655 15.8152 7.728 15.6766 7.79136C15.3801 7.92462 15.1137 7.99739 14.885 8.00801C14.7629 8.00228 14.6776 7.97695 14.6224 7.95282C14.6292 7.83959 14.636 7.72147 14.6447 7.60089L14.6486 7.54855C14.7299 6.31407 14.8307 4.77834 14.4053 3.86595C14.1147 3.24177 13.7242 2.70465 13.2436 2.2689C12.8405 1.90468 12.3725 1.60793 11.8522 1.38963C10.9492 1.00661 10.1052 0.948989 9.68278 0.948989H9.68182C9.66535 0.948989 9.64985 0.948989 9.63531 0.948989C9.51805 0.950207 9.32621 0.952664 9.30878 0.952664C8.88728 0.952664 8.04237 1.00949 7.13643 1.39251C6.61706 1.61118 6.15198 1.90674 5.75084 2.27218C5.27219 2.70669 4.88268 3.24259 4.59297 3.86555C4.16761 4.7767 4.26837 6.31161 4.3488 7.54528V7.54774C4.35752 7.67976 4.36721 7.81752 4.37496 7.95201C4.31391 7.97777 4.21315 8.00801 4.06393 8.00801C3.82461 8.00801 3.53973 7.93525 3.21709 7.79014C3.12212 7.74845 3.01458 7.72596 2.89541 7.72596C2.70451 7.72596 2.50105 7.78033 2.32664 7.87966C2.10573 8.0031 1.96329 8.17725 1.92454 8.37304C1.89933 8.50057 1.90032 8.75484 2.19486 9.01236C2.35765 9.15379 2.59503 9.285 2.90316 9.40027C2.98357 9.43175 3.0795 9.46037 3.18027 9.49061C3.53198 9.59811 4.06588 9.76 4.20443 10.0727C4.27419 10.2309 4.24319 10.4394 4.11432 10.6928C4.11043 10.6989 4.10657 10.7067 4.10464 10.7132C4.07168 10.7864 3.7684 11.4421 3.14733 12.1337C2.79463 12.5274 2.40609 12.8568 1.99333 13.1115C1.4885 13.4242 0.943011 13.6269 0.372289 13.7169C0.14751 13.7524 -0.0123631 13.9441 0.000217915 14.1612C0.00410485 14.2246 0.0196071 14.2871 0.046747 14.3476V14.3488C0.137827 14.5524 0.34807 14.7249 0.690103 14.8765C1.10868 15.0625 1.73267 15.2183 2.54853 15.3401C2.59018 15.4157 2.63282 15.6038 2.66286 15.7321C2.69386 15.8699 2.72583 16.0109 2.77234 16.1605C2.82177 16.322 2.95063 16.5157 3.282 16.5157C3.407 16.5157 3.55137 16.4883 3.719 16.4581C3.96316 16.4123 4.29841 16.3489 4.71506 16.3489C4.94662 16.3489 5.18692 16.3686 5.42723 16.4078C5.89328 16.4814 6.29442 16.7532 6.75854 17.068C7.43775 17.5286 8.20807 18.0494 9.38337 18.0494C9.41536 18.0494 9.44733 18.0478 9.4793 18.0457C9.51805 18.0478 9.56652 18.0494 9.61592 18.0494C10.7922 18.0494 11.5615 17.5286 12.2408 17.0688L12.2417 17.068C12.7068 16.7544 13.108 16.4826 13.573 16.4086C13.8143 16.3698 14.0546 16.3506 14.2862 16.3506C14.6854 16.3506 15.0013 16.3996 15.2822 16.4524C15.4663 16.4867 15.6088 16.5035 15.7192 16.5035H15.7299H15.7405C15.9828 16.5035 16.1611 16.3747 16.2289 16.1535C16.2744 16.0064 16.3064 15.8699 16.3384 15.7293C16.3655 15.6082 16.411 15.4141 16.4508 15.3397C17.2666 15.2162 17.8916 15.0613 18.3092 14.8753C18.6502 14.7237 18.8605 14.5516 18.9516 14.3488C18.9797 14.2883 18.9962 14.2258 18.9991 14.1604C19.0126 13.945 18.8528 13.7524 18.628 13.7181Z" fill="#757575" />
</svg>
