<svg width="27" height="23" viewBox="0 0 58 40" fill="none" xmlns="http://www.w3.org/2000/svg">
    <path d="M43.3832 25.3424C39.3907 25.3424 36.1426 28.5905 36.1426 32.5831C36.1426 36.5757 39.3907 39.8237 43.3832 39.8237C47.3765 39.8237 50.6239 36.5757 50.6239 32.5831C50.6239 28.5905 47.3758 25.3424 43.3832 25.3424ZM43.3832 36.2034C41.3867 36.2034 39.7629 34.5796 39.7629 32.5831C39.7629 30.5865 41.3867 28.9627 43.3832 28.9627C45.3798 28.9627 47.0036 30.5865 47.0036 32.5831C47.0036 34.5798 45.3798 36.2034 43.3832 36.2034Z" fill="#FBFBFB" />
    <path d="M18.645 25.3424C14.6524 25.3424 11.4043 28.5905 11.4043 32.5831C11.4043 36.5757 14.6524 39.8237 18.645 39.8237C22.6376 39.8237 25.8856 36.5757 25.8856 32.5831C25.8856 28.5905 22.6376 25.3424 18.645 25.3424ZM18.645 36.2034C16.6484 36.2034 15.0246 34.5796 15.0246 32.5831C15.0246 30.5865 16.6484 28.9627 18.645 28.9627C20.641 28.9627 22.2653 30.5865 22.2653 32.5831C22.2653 34.5798 20.6415 36.2034 18.645 36.2034Z" fill="#FBFBFB" />
    <path d="M48.2596 4.61728C47.9519 4.00606 47.3262 3.62045 46.6419 3.62045H37.1084V7.24079H45.5256L50.4547 17.0446L53.6901 15.4178L48.2596 4.61728Z" fill="#FBFBFB" />
    <path d="M37.9537 30.8331H24.2568V34.4534H37.9537V30.8331Z" fill="#FBFBFB" />
    <path d="M13.2142 30.8331H6.93902C5.93916 30.8331 5.12891 31.6434 5.12891 32.6432C5.12891 33.643 5.93927 34.4533 6.93902 34.4533H13.2143C14.2141 34.4533 15.0244 33.6429 15.0244 32.6432C15.0244 31.6433 14.214 30.8331 13.2142 30.8331Z" fill="#FBFBFB" />
    <path d="M57.0624 19.7669L53.5019 15.1812C53.1598 14.7395 52.6318 14.4812 52.0724 14.4812H38.9185V1.81011C38.9185 0.810252 38.1082 0 37.1084 0H6.93902C5.93916 0 5.12891 0.810364 5.12891 1.81011C5.12891 2.80986 5.93927 3.62022 6.93902 3.62022H35.2982V16.2913C35.2982 17.2912 36.1086 18.1014 37.1083 18.1014H51.186L53.8222 21.4973V30.8329H48.814C47.8142 30.8329 47.0039 31.6433 47.0039 32.643C47.0039 33.6429 47.8143 34.4531 48.814 34.4531H55.6323C56.6321 34.4531 57.4424 33.6428 57.4425 32.643V20.8772C57.4425 20.4753 57.3085 20.0843 57.0624 19.7669Z" fill="#FBFBFB" />
    <path d="M13.0939 21.6616H4.76714C3.76728 21.6616 2.95703 22.472 2.95703 23.4717C2.95703 24.4716 3.7674 25.2818 4.76714 25.2818H13.0938C14.0937 25.2818 14.9039 24.4715 14.9039 23.4717C14.9041 22.472 14.0937 21.6616 13.0939 21.6616Z" fill="#FBFBFB" />
    <path d="M17.2569 14.5414H1.81011C0.810365 14.5414 0 15.3518 0 16.3516C0 17.3515 0.810365 18.1617 1.81011 18.1617H17.2569C18.2567 18.1617 19.067 17.3514 19.067 16.3516C19.067 15.3519 18.2567 14.5414 17.2569 14.5414Z" fill="#FBFBFB" />
    <path d="M20.2139 7.42172H4.76714C3.76728 7.42172 2.95703 8.23209 2.95703 9.23183C2.95703 10.2317 3.7674 11.0419 4.76714 11.0419H20.2139C21.2137 11.0419 22.024 10.2316 22.024 9.23183C22.0241 8.23209 21.2137 7.42172 20.2139 7.42172Z" fill="#FBFBFB" />
</svg>
