<svg width="58" height="40" viewBox="0 0 58 40" fill="none" xmlns="http://www.w3.org/2000/svg">
<path d="M43.3837 25.3425C39.3911 25.3425 36.1431 28.5906 36.1431 32.5832C36.1431 36.5758 39.3911 39.8239 43.3837 39.8239C47.377 39.8239 50.6244 36.5758 50.6244 32.5832C50.6244 28.5906 47.3763 25.3425 43.3837 25.3425ZM43.3837 36.2035C41.3872 36.2035 39.7634 34.5798 39.7634 32.5832C39.7634 30.5866 41.3872 28.9629 43.3837 28.9629C45.3803 28.9629 47.0041 30.5866 47.0041 32.5832C47.0041 34.5799 45.3803 36.2035 43.3837 36.2035Z" fill="#4AD66D"/>
<path d="M18.6445 25.3425C14.6519 25.3425 11.4038 28.5906 11.4038 32.5832C11.4038 36.5758 14.6519 39.8239 18.6445 39.8239C22.6371 39.8239 25.8851 36.5758 25.8851 32.5832C25.8851 28.5906 22.6371 25.3425 18.6445 25.3425ZM18.6445 36.2035C16.6479 36.2035 15.0241 34.5798 15.0241 32.5832C15.0241 30.5866 16.6479 28.9629 18.6445 28.9629C20.6405 28.9629 22.2648 30.5866 22.2648 32.5832C22.2648 34.5799 20.641 36.2035 18.6445 36.2035Z" fill="#4AD66D"/>
<path d="M48.2591 4.61719C47.9514 4.00597 47.3257 3.62036 46.6414 3.62036H37.1079V7.24069H45.5251L50.4542 17.0445L53.6896 15.4177L48.2591 4.61719Z" fill="#4AD66D"/>
<path d="M37.9532 30.833H24.2563V34.4533H37.9532V30.833Z" fill="#4AD66D"/>
<path d="M13.2142 30.833H6.93902C5.93916 30.833 5.12891 31.6434 5.12891 32.6431C5.12891 33.643 5.93927 34.4532 6.93902 34.4532H13.2143C14.2141 34.4532 15.0244 33.6429 15.0244 32.6431C15.0244 31.6433 14.214 30.833 13.2142 30.833Z" fill="#4AD66D"/>
<path d="M57.0624 19.7669L53.5019 15.1812C53.1598 14.7395 52.6318 14.4812 52.0724 14.4812H38.9185V1.81011C38.9185 0.810252 38.1082 0 37.1084 0H6.93902C5.93916 0 5.12891 0.810364 5.12891 1.81011C5.12891 2.80986 5.93927 3.62022 6.93902 3.62022H35.2982V16.2913C35.2982 17.2912 36.1086 18.1014 37.1083 18.1014H51.186L53.8222 21.4973V30.8329H48.814C47.8142 30.8329 47.0039 31.6433 47.0039 32.643C47.0039 33.6429 47.8143 34.4531 48.814 34.4531H55.6323C56.6321 34.4531 57.4424 33.6428 57.4425 32.643V20.8772C57.4425 20.4753 57.3085 20.0843 57.0624 19.7669Z" fill="#4AD66D"/>
<path d="M13.0935 21.6616H4.76665C3.7668 21.6616 2.95654 22.472 2.95654 23.4717C2.95654 24.4716 3.76691 25.2818 4.76665 25.2818H13.0933C14.0932 25.2818 14.9035 24.4715 14.9035 23.4717C14.9036 22.472 14.0932 21.6616 13.0935 21.6616Z" fill="#4AD66D"/>
<path d="M17.2569 14.5415H1.81011C0.810365 14.5415 0 15.3519 0 16.3517C0 17.3516 0.810365 18.1618 1.81011 18.1618H17.2569C18.2567 18.1618 19.067 17.3515 19.067 16.3517C19.067 15.352 18.2567 14.5415 17.2569 14.5415Z" fill="#4AD66D"/>
<path d="M20.2134 7.42163H4.76665C3.7668 7.42163 2.95654 8.232 2.95654 9.23174C2.95654 10.2316 3.76691 11.0419 4.76665 11.0419H20.2134C21.2133 11.0419 22.0235 10.2315 22.0235 9.23174C22.0236 8.232 21.2133 7.42163 20.2134 7.42163Z" fill="#4AD66D"/>
</svg>
