<svg width="31" height="21" viewBox="0 0 31 21" fill="none" xmlns="http://www.w3.org/2000/svg">
<path d="M22.8768 13.3638C20.7714 13.3638 19.0586 15.0766 19.0586 17.1819C19.0586 19.2873 20.7714 21.0001 22.8768 21.0001C24.9825 21.0001 26.6949 19.2873 26.6949 17.1819C26.6949 15.0766 24.9822 13.3638 22.8768 13.3638ZM22.8768 19.091C21.8239 19.091 20.9677 18.2348 20.9677 17.1819C20.9677 16.1291 21.8239 15.2729 22.8768 15.2729C23.9296 15.2729 24.7859 16.1291 24.7859 17.1819C24.7859 18.2348 23.9296 19.091 22.8768 19.091Z" fill="#1A2531"/>
<path d="M9.83184 13.3638C7.72646 13.3638 6.01367 15.0766 6.01367 17.1819C6.01367 19.2873 7.72646 21.0001 9.83184 21.0001C11.9372 21.0001 13.65 19.2873 13.65 17.1819C13.65 15.0766 11.9372 13.3638 9.83184 13.3638ZM9.83184 19.091C8.779 19.091 7.92276 18.2348 7.92276 17.1819C7.92276 16.1291 8.779 15.2729 9.83184 15.2729C10.8844 15.2729 11.7409 16.1291 11.7409 17.1819C11.7409 18.2348 10.8847 19.091 9.83184 19.091Z" fill="#1A2531"/>
<path d="M25.4487 2.43483C25.2864 2.11252 24.9564 1.90918 24.5956 1.90918H19.5684V3.81827H24.007L26.6062 8.98805L28.3123 8.1302L25.4487 2.43483Z" fill="#1A2531"/>
<path d="M20.0137 16.259H12.791V18.1681H20.0137V16.259Z" fill="#1A2531"/>
<path d="M6.96862 16.259H3.65959C3.13234 16.259 2.70508 16.6864 2.70508 17.2135C2.70508 17.7408 3.1324 18.1681 3.65959 18.1681H6.96868C7.49593 18.1681 7.92319 17.7407 7.92319 17.2135C7.92319 16.6863 7.49587 16.259 6.96862 16.259Z" fill="#1A2531"/>
<path d="M30.0908 10.4236L28.2133 8.0054C28.0329 7.77248 27.7545 7.63629 27.4595 7.63629H20.5231V0.954513C20.5231 0.427265 20.0958 0 19.5686 0H3.65959C3.13234 0 2.70508 0.427324 2.70508 0.954513C2.70508 1.4817 3.1324 1.90903 3.65959 1.90903H18.6141V8.5908C18.6141 9.11805 19.0414 9.54531 19.5686 9.54531H26.9921L28.3822 11.336V16.2589H25.7413C25.214 16.2589 24.7867 16.6862 24.7867 17.2134C24.7867 17.7407 25.2141 18.1679 25.7413 18.1679H29.3367C29.8639 18.1679 30.2912 17.7406 30.2913 17.2134V11.009C30.2913 10.7971 30.2206 10.5909 30.0908 10.4236Z" fill="#1A2531"/>
<path d="M6.905 11.4226H2.51408C1.98684 11.4226 1.55957 11.8499 1.55957 12.3771C1.55957 12.9044 1.98689 13.3316 2.51408 13.3316H6.90494C7.43219 13.3316 7.85946 12.9043 7.85946 12.3771C7.85951 11.8499 7.43219 11.4226 6.905 11.4226Z" fill="#1A2531"/>
<path d="M9.09995 7.66797H0.954514C0.427324 7.66797 0 8.09529 0 8.62254C0 9.14979 0.427324 9.57706 0.954514 9.57706H9.09995C9.62719 9.57706 10.0545 9.14973 10.0545 8.62254C10.0545 8.09535 9.62719 7.66797 9.09995 7.66797Z" fill="#1A2531"/>
<path d="M10.6595 3.91357H2.51408C1.98684 3.91357 1.55957 4.3409 1.55957 4.86809C1.55957 5.39534 1.98689 5.8226 2.51408 5.8226H10.6595C11.1868 5.8226 11.614 5.39528 11.614 4.86809C11.6141 4.3409 11.1868 3.91357 10.6595 3.91357Z" fill="#1A2531"/>
</svg>
