<svg width="17" height="14" viewBox="0 0 17 14" fill="none" xmlns="http://www.w3.org/2000/svg">
    <path fill-rule="evenodd" clip-rule="evenodd" d="M16.5315 0.345344C15.8571 0.744704 15.11 1.03493 14.3155 1.19149C13.6789 0.513344 12.7739 0.0902719 11.7701 0.0902719C9.84388 0.0902719 8.28196 1.65218 8.28196 3.57747C8.28196 3.85053 8.31298 4.11704 8.37304 4.37171C5.47496 4.22619 2.90438 2.8376 1.18454 0.727536C0.88416 1.24218 0.71266 1.84102 0.71266 2.48115C0.71266 3.69152 1.3289 4.75882 2.26392 5.38341C1.69226 5.36421 1.15546 5.20683 0.68456 4.94522V4.98936C0.68456 6.6784 1.887 8.08782 3.48188 8.40912C3.18926 8.48802 2.88114 8.53174 2.56332 8.53174C2.33756 8.53174 2.11956 8.50886 1.90638 8.46838C2.35016 9.85411 3.63788 10.8621 5.16298 10.8912C3.97022 11.826 2.46546 12.3832 0.8328 12.3832C0.55084 12.3832 0.27374 12.3672 0.000499964 12.3357C1.544 13.3246 3.37626 13.9021 5.3461 13.9021C11.7614 13.9021 15.2689 8.58816 15.2689 3.9797L15.2573 3.52678C15.9404 3.03709 16.5334 2.4227 17.0004 1.72453C16.3745 2.00126 15.703 2.1897 14.9976 2.2739C15.7176 1.84226 16.2699 1.15757 16.5315 0.345344Z" fill="#757575" />
</svg>
