<svg width="24" height="28" viewBox="0 0 24 28" fill="none" xmlns="http://www.w3.org/2000/svg">
<path d="M0.2528 27.7499C0.389414 21.656 5.50801 16.7339 11.7898 16.7339C18.0702 16.7339 23.1888 21.6559 23.3254 27.7499H20.9875C20.8506 22.9339 16.7712 19.071 11.7884 19.071C6.80548 19.071 2.72758 22.9353 2.59071 27.7499H0.2528Z" fill="#CDCDD2" stroke="white" stroke-width="0.5"/>
<path d="M4.26025 7.7809L4.26025 7.78082C4.25888 3.62919 7.63801 0.25 11.7897 0.25C15.9429 0.25 19.3221 3.62783 19.3221 7.7809C19.3221 11.934 15.9429 15.3118 11.7897 15.3118C7.6395 15.3118 4.26025 11.9312 4.26025 7.7809ZM11.7897 2.58716C8.92516 2.58716 6.59599 4.91632 6.59599 7.7809C6.59599 10.6455 8.92516 12.9746 11.7897 12.9746C14.6557 12.9746 16.9849 10.6455 16.9849 7.7809C16.9849 4.91618 14.6528 2.58716 11.7897 2.58716Z" fill="#CDCDD2" stroke="white" stroke-width="0.5"/>
</svg>
