<svg width="23" height="23" viewBox="0 0 37 40" fill="none" xmlns="http://www.w3.org/2000/svg">
    <path d="M34.1018 9.91865V1.39321C34.1018 0.720911 33.8144 0.345803 33.1883 0.0997714C32.706 -0.09026 32.2371 0.0229946 31.6659 0.175294L0 9.91865V36.7129C0 38.0574 1.09004 39.1488 2.43584 39.1488H34.1018C35.4476 39.1488 36.5376 38.0575 36.5376 36.7129V12.3545C36.5376 11.0099 35.4476 9.91865 34.1018 9.91865ZM31.666 2.61113V9.91865H7.91654L31.666 2.61113ZM34.1018 25.7517C34.1018 26.4239 34.1018 26.1317 34.1018 26.9696H29.23C29.23 26.1816 29.23 26.4239 29.23 25.7517V24.5338H34.1018C34.1018 25.4472 34.1018 25.0793 34.1018 25.7517ZM34.1018 22.0979H28.0122C27.3399 22.0979 26.7942 22.6436 26.7942 23.3158V28.1875C26.7942 28.8598 27.3399 29.4054 28.0122 29.4054H34.1018V35.495C34.1018 36.1673 33.5561 36.7129 32.8838 36.7129H3.65376C2.98146 36.7129 2.43584 36.1673 2.43584 35.495C2.43584 35.495 2.43584 13.1925 2.43584 12.3545H32.8838C33.5561 12.3545 34.1018 12.8989 34.1018 13.5724V22.0979Z" fill="#FBFBFB" />
</svg>    