<svg width="52" height="52" viewBox="0 0 52 52" fill="none" xmlns="http://www.w3.org/2000/svg">
<circle cx="26" cy="26" r="26" fill="#7AE582"/>
<path fill-rule="evenodd" clip-rule="evenodd" d="M35.588 16.4097C33.0453 13.877 29.6637 12.4816 26.0612 12.4801C18.6379 12.4801 12.5964 18.4907 12.5934 25.8781C12.5924 28.2397 13.2125 30.5449 14.3911 32.5769L12.4805 39.5201L19.62 37.6568C21.5872 38.7244 23.8019 39.2871 26.0558 39.2877H26.0614C33.4839 39.2877 39.526 33.2767 39.5289 25.8889C39.5304 22.3085 38.1308 18.9422 35.588 16.4097ZM26.0612 37.0249H26.0566C24.0481 37.0241 22.0782 36.487 20.3593 35.4725L19.9507 35.2311L15.714 36.3368L16.8449 32.2272L16.5786 31.8058C15.4581 30.0327 14.8664 27.9832 14.8674 25.879C14.8697 19.7387 19.8913 14.7431 26.0657 14.7431C29.0556 14.7441 31.8662 15.904 33.9795 18.0091C36.0929 20.1142 37.2561 22.9122 37.2551 25.888C37.2524 32.0288 32.2311 37.0249 26.0612 37.0249ZM32.2013 28.684C31.8649 28.5163 30.2103 27.7066 29.9018 27.5947C29.5936 27.483 29.369 27.4274 29.1449 27.7624C28.9204 28.0974 28.2756 28.8516 28.0792 29.0749C27.8828 29.2984 27.6867 29.3265 27.3502 29.1588C27.0136 28.9913 25.9294 28.6376 24.6439 27.497C23.6436 26.6093 22.9683 25.5129 22.7719 25.1779C22.5758 24.8425 22.7703 24.6788 22.9196 24.4946C23.2838 24.0446 23.6486 23.5727 23.7608 23.3494C23.8731 23.1259 23.8168 22.9304 23.7326 22.7629C23.6486 22.5953 22.9756 20.9474 22.6953 20.2769C22.4219 19.6243 22.1447 19.7124 21.938 19.7022C21.7419 19.6925 21.5175 19.6905 21.2931 19.6905C21.0688 19.6905 20.7042 19.7742 20.3956 20.1095C20.0873 20.4447 19.218 21.2546 19.218 22.9025C19.218 24.5504 20.4238 26.1424 20.592 26.3658C20.7602 26.5893 22.965 29.9709 26.3406 31.421C27.1435 31.7662 27.7702 31.972 28.259 32.1264C29.0652 32.3812 29.7986 32.3452 30.3785 32.259C31.0252 32.1628 32.3693 31.449 32.65 30.6671C32.9303 29.885 32.9303 29.2147 32.8461 29.0749C32.7621 28.9353 32.5377 28.8516 32.2013 28.684Z" fill="white"/>
</svg>
