<svg width="132" height="64" viewBox="0 0 132 64" fill="none" xmlns="http://www.w3.org/2000/svg">
<path d="M129.934 29.8258C118.621 24.0151 107.223 20.4183 95.2417 17.2109C89.7216 15.735 65.3169 11.3102 44.7588 11.6907C44.4683 11.6907 44.1777 11.6907 43.8639 11.7082C25.6737 12.1759 10.7752 16.5426 15.139 30.2645C16.0982 33.0898 17.5123 35.7395 19.3256 38.1089C18.8898 38.0391 18.454 37.9549 18.0356 37.859C11.3882 36.354 5.86235 30.1977 5.86235 30.1977C4.56658 28.745 2.48054 26.3917 1.12375 22.6961C0.583359 21.2231 -0.137173 19.1923 0.0226196 16.4671C0.134398 14.6399 0.611591 12.8538 1.42591 11.2143C1.95759 10.148 3.15454 7.90511 6.24871 5.76389C12.0768 1.7342 18.6893 1.09503 24.3634 0.502346C28.4093 0.132475 32.4712 -0.033336 36.5338 0.0055377C36.5338 0.0055377 37.2136 0.00553664 37.9051 0.0316846C71.8742 1.00497 102.281 14.3927 102.281 14.3927C111.96 18.6629 121.218 23.8298 129.934 29.8258Z" fill="url(#paint0_linear)"/>
<path d="M132 41.8422C122.753 37.6382 113.516 35.1803 103.819 33.0681C99.3472 32.0948 79.7043 29.4742 63.3009 30.555L62.5891 30.6015C48.0828 31.659 36.3482 35.7032 40.3459 46.4965C41.2195 48.7141 42.448 50.7747 43.9834 52.5977C43.6318 52.557 43.2861 52.5076 42.9432 52.4466C37.58 51.4937 32.9373 46.7841 32.9373 46.7841C31.2067 45.1386 29.8236 43.1628 28.8699 40.9735C28.3847 39.8114 27.731 38.2251 27.7571 36.0344C27.7773 34.571 28.0915 33.1265 28.681 31.7869C29.0645 30.9153 29.9361 29.0791 32.3272 27.2546C36.8304 23.8176 42.0891 23.0622 46.5953 22.3736C50.9271 21.7141 55.9591 21.5369 56.2932 21.5224C56.2932 21.5224 56.8394 21.502 57.3914 21.4933C84.562 21.0139 109.339 30.5608 109.339 30.5608C117.228 33.6066 124.815 37.3835 132 41.8422Z" fill="#1A2531"/>
<path d="M132 52.3101C124.737 49.4338 117.552 47.8969 110.033 46.6418C106.564 46.0608 91.3836 44.7969 78.8297 46.2496L78.2835 46.3135C67.1852 47.6732 58.3297 51.2235 61.8074 59.3584C62.5608 61.0315 63.5824 62.5702 64.8318 63.914C64.5617 63.8965 64.2944 63.8704 64.0271 63.8355C59.8725 63.3097 56.1304 59.8698 56.1304 59.8698C54.7393 58.6707 53.6032 57.2046 52.7893 55.5583C52.1726 54.402 51.8166 53.1248 51.7463 51.8162C51.7031 50.496 51.9677 49.1839 52.5194 47.9838C53.0711 46.7836 53.8946 45.7283 54.9247 44.9015C58.2513 42.0921 62.2577 41.3106 65.6947 40.6133C68.1475 40.1486 70.6221 39.8073 73.1091 39.5906C73.1091 39.5906 73.5245 39.5557 73.9487 39.5267C94.7712 38.1147 114.161 44.5064 114.161 44.5064C120.338 46.5457 126.31 49.1583 132 52.3101Z" fill="url(#paint1_linear)"/>
<defs>
<linearGradient id="paint0_linear" x1="384561" y1="11640.4" x2="442671" y2="11640.4" gradientUnits="userSpaceOnUse">
<stop stop-color="#7AE582"/>
<stop offset="1" stop-color="#4AD66D"/>
</linearGradient>
<linearGradient id="paint1_linear" x1="251878" y1="10305.6" x2="274050" y2="10305.6" gradientUnits="userSpaceOnUse">
<stop stop-color="#7AE582"/>
<stop offset="1" stop-color="#4AD66D"/>
</linearGradient>
</defs>
</svg>
